<svg width="24" height="24" viewBox="0 0 24 24" fill="none" xmlns="http://www.w3.org/2000/svg">
<path d="M11.4705 18.6642C11.9911 19.1848 12.8352 19.1848 13.3558 18.6642L19.0797 12.9404C19.6004 12.4197 19.6004 11.5754 19.0797 11.0547L13.3558 5.33089C12.8352 4.81027 11.9911 4.81027 11.4705 5.33089C10.9499 5.85151 10.9499 6.6956 11.4705 7.21622L15.309 11.0547C15.8297 11.5754 15.8297 12.4197 15.309 12.9404L11.4705 16.7789C10.9499 17.2995 10.9499 18.1436 11.4705 18.6642Z" fill="#5A5FE0"/>
<path d="M6.68933 18.6642L12.4132 12.9404C12.9339 12.4197 12.9339 11.5754 12.4132 11.0547L6.68933 5.33089C6.16871 4.81027 5.32462 4.81027 4.804 5.33089C4.28337 5.85151 4.28337 6.6956 4.804 7.21622L8.64252 11.0547C9.16322 11.5754 9.16322 12.4197 8.64252 12.9404L4.804 16.7789C4.28337 17.2995 4.28337 18.1436 4.804 18.6642C5.32462 19.1848 6.16871 19.1848 6.68933 18.6642Z" fill="#666CFF"/>
</svg>
