<svg width="17" height="11" viewBox="0 0 17 11" fill="none" xmlns="http://www.w3.org/2000/svg">
<path d="M4.33268 2.5H0.166016V0.833333H4.33268V2.5ZM4.33268 5H0.166016V6.66667H4.33268V5ZM15.6577 10.8333L12.466 7.64167C11.7993 8.075 11.016 8.33333 10.166 8.33333C7.86602 8.33333 5.99935 6.46667 5.99935 4.16667C5.99935 1.86667 7.86602 0 10.166 0C12.466 0 14.3327 1.86667 14.3327 4.16667C14.3327 5.01667 14.0743 5.8 13.641 6.45833L16.8327 9.65833L15.6577 10.8333ZM12.666 4.16667C12.666 2.79167 11.541 1.66667 10.166 1.66667C8.79102 1.66667 7.66602 2.79167 7.66602 4.16667C7.66602 5.54167 8.79102 6.66667 10.166 6.66667C11.541 6.66667 12.666 5.54167 12.666 4.16667ZM0.166016 10.8333H8.49935V9.16667H0.166016V10.8333Z" fill="white"/>
</svg>
