<svg width="58" height="58" viewBox="0 0 58 58" fill="none" xmlns="http://www.w3.org/2000/svg">
<path opacity="0.2" d="M22.8829 41.2573L20.1415 46.6948C19.9651 47.0656 19.6651 47.3634 19.293 47.5371C18.9209 47.7107 18.4999 47.7494 18.1024 47.6464C12.5517 46.287 7.74854 43.9308 4.25947 40.8948C3.99643 40.6628 3.80541 40.3602 3.70904 40.0229C3.61267 39.6856 3.61499 39.3277 3.71572 38.9917L11.3962 13.3448C11.4709 13.0824 11.6062 12.8411 11.7912 12.6404C11.9761 12.4397 12.2055 12.2853 12.461 12.1894C14.631 11.2991 16.875 10.6017 19.1673 10.105C19.6078 10.0085 20.0684 10.0776 20.4612 10.2991C20.854 10.5206 21.1515 10.8789 21.297 11.3058L23.0868 16.7206C27.0103 16.1768 30.9899 16.1768 34.9134 16.7206V16.7206L36.7032 11.3058C36.8487 10.8789 37.1462 10.5206 37.539 10.2991C37.9318 10.0776 38.3924 10.0085 38.8329 10.105C41.1252 10.6017 43.3692 11.2991 45.5392 12.1894C45.7947 12.2853 46.0241 12.4397 46.209 12.6404C46.394 12.8411 46.5293 13.0824 46.604 13.3448L54.2845 38.9917C54.3852 39.3277 54.3875 39.6856 54.2912 40.0229C54.1948 40.3602 54.0038 40.6628 53.7407 40.8948C50.2517 43.9308 45.4485 46.287 39.8978 47.6464C39.5003 47.7494 39.0793 47.7107 38.7072 47.5371C38.3351 47.3634 38.0351 47.0656 37.8587 46.6948L35.1173 41.2573C33.0907 41.5423 31.0467 41.6862 29.0001 41.6878C26.9535 41.6862 24.9095 41.5423 22.8829 41.2573V41.2573Z" fill="#4C4E64" fill-opacity="0.6"/>
<path fill-rule="evenodd" clip-rule="evenodd" d="M24.4688 32.625C24.4688 34.1265 23.2515 35.3438 21.75 35.3438C20.2485 35.3438 19.0312 34.1265 19.0312 32.625C19.0312 31.1235 20.2485 29.9062 21.75 29.9062C23.2515 29.9062 24.4688 31.1235 24.4688 32.625ZM38.9688 32.625C38.9688 34.1265 37.7515 35.3438 36.25 35.3438C34.7485 35.3438 33.5312 34.1265 33.5312 32.625C33.5312 31.1235 34.7485 29.9062 36.25 29.9062C37.7515 29.9062 38.9688 31.1235 38.9688 32.625Z" fill="#4C4E64" fill-opacity="0.6"/>
<path d="M16.8563 18.1253C20.7855 16.8939 24.8826 16.2824 29.0001 16.3128C33.1176 16.2824 37.2147 16.8939 41.1439 18.1253M41.1439 39.8753C37.2147 41.1067 33.1176 41.7182 29.0001 41.6878C24.8826 41.7182 20.7855 41.1067 16.8563 39.8753M35.1173 41.2573L37.8587 46.6948C38.0351 47.0656 38.3351 47.3634 38.7072 47.5371C39.0793 47.7107 39.5003 47.7494 39.8978 47.6464C45.4485 46.287 50.2517 43.9308 53.7407 40.8948C54.0038 40.6628 54.1948 40.3602 54.2912 40.0229C54.3875 39.6856 54.3852 39.3277 54.2845 38.9917L46.604 13.3448C46.5293 13.0824 46.394 12.8411 46.209 12.6404C46.0241 12.4397 45.7947 12.2853 45.5392 12.1894C43.3692 11.2991 41.1252 10.6017 38.8329 10.105C38.3924 10.0085 37.9318 10.0776 37.539 10.2991C37.1462 10.5206 36.8487 10.8789 36.7032 11.3058L34.9134 16.7206M22.8829 41.2573L20.1415 46.6948C19.9651 47.0656 19.6651 47.3634 19.293 47.5371C18.9209 47.7107 18.4999 47.7494 18.1024 47.6464C12.5517 46.287 7.74854 43.9308 4.25947 40.8948C3.99643 40.6628 3.80541 40.3602 3.70904 40.0229C3.61267 39.6856 3.61499 39.3277 3.71572 38.9917L11.3962 13.3448C11.4709 13.0824 11.6062 12.8411 11.7912 12.6404C11.9761 12.4397 12.2055 12.2853 12.461 12.1894C14.631 11.2991 16.875 10.6017 19.1673 10.105C19.6078 10.0085 20.0684 10.0776 20.4612 10.2991C20.854 10.5206 21.1515 10.8789 21.297 11.3058L23.0868 16.7206" stroke="#4C4E64" stroke-opacity="0.6" stroke-width="2" stroke-linecap="round" stroke-linejoin="round"/>
</svg>
