<svg width="20" height="20" viewBox="0 0 20 20" fill="none" xmlns="http://www.w3.org/2000/svg">
<path d="M3.33366 5.0013H1.66699V16.668C1.66699 17.5846 2.41699 18.3346 3.33366 18.3346H15.0003V16.668H3.33366V5.0013ZM16.667 1.66797H6.66699C5.75033 1.66797 5.00033 2.41797 5.00033 3.33464V13.3346C5.00033 14.2513 5.75033 15.0013 6.66699 15.0013H16.667C17.5837 15.0013 18.3337 14.2513 18.3337 13.3346V3.33464C18.3337 2.41797 17.5837 1.66797 16.667 1.66797ZM15.8337 9.16797H7.50033V7.5013H15.8337V9.16797ZM12.5003 12.5013H7.50033V10.8346H12.5003V12.5013ZM15.8337 5.83464H7.50033V4.16797H15.8337V5.83464Z" fill="#DF9F23"/>
</svg>
