<svg width="32" height="32" viewBox="0 0 32 32" fill="none" xmlns="http://www.w3.org/2000/svg">
<circle cx="16" cy="16" r="16" fill="#666CFF"/>
<circle cx="16" cy="16" r="16" fill="white" fill-opacity="0.88"/>
<path fill-rule="evenodd" clip-rule="evenodd" d="M13.1764 20.706L15.9999 17.9389C15.6328 17.9013 15.3599 17.8825 15.0587 17.8825C12.5458 17.8825 7.5293 19.1436 7.5293 21.6472V23.5295H15.9999L13.1764 20.706ZM15.0587 16.0001C17.1387 16.0001 18.8234 14.3154 18.8234 12.2354C18.8234 10.1554 17.1387 8.4707 15.0587 8.4707C12.9787 8.4707 11.294 10.1554 11.294 12.2354C11.294 14.3154 12.9787 16.0001 15.0587 16.0001Z" fill="#666CFF"/>
<path fill-rule="evenodd" clip-rule="evenodd" d="M19.2658 24.0001L15.9999 20.706L17.3175 19.3789L19.2658 21.3366L24.094 16.4707L25.4116 17.7978L19.2658 24.0001Z" fill="#666CFF"/>
<circle cx="28" cy="6" r="4" fill="#83E542"/>
</svg>
