<svg width="20" height="20" viewBox="0 0 20 20" fill="none" xmlns="http://www.w3.org/2000/svg">
<path d="M9.16797 14.9993H10.8346V13.3327H9.16797V14.9993ZM10.0013 1.66602C5.4013 1.66602 1.66797 5.39935 1.66797 9.99935C1.66797 14.5993 5.4013 18.3327 10.0013 18.3327C14.6013 18.3327 18.3346 14.5993 18.3346 9.99935C18.3346 5.39935 14.6013 1.66602 10.0013 1.66602ZM10.0013 16.666C6.3263 16.666 3.33464 13.6743 3.33464 9.99935C3.33464 6.32435 6.3263 3.33268 10.0013 3.33268C13.6763 3.33268 16.668 6.32435 16.668 9.99935C16.668 13.6743 13.6763 16.666 10.0013 16.666ZM10.0013 4.99935C8.15964 4.99935 6.66797 6.49102 6.66797 8.33268H8.33464C8.33464 7.41602 9.08464 6.66602 10.0013 6.66602C10.918 6.66602 11.668 7.41602 11.668 8.33268C11.668 9.99935 9.16797 9.79102 9.16797 12.4993H10.8346C10.8346 10.6243 13.3346 10.416 13.3346 8.33268C13.3346 6.49102 11.843 4.99935 10.0013 4.99935Z" fill="#4C4E64" fill-opacity="0.54"/>
</svg>
