<svg width="32" height="32" viewBox="0 0 32 32" fill="none" xmlns="http://www.w3.org/2000/svg">
<rect width="32" height="32" rx="16" fill="#666CFF"/>
<rect width="32" height="32" rx="16" fill="white" fill-opacity="0.88"/>
<path d="M24.19 8H8C6.9 8 6.01 8.9 6.01 10V14C7.11 14 8 14.9 8 16C8 17.1 7.11 18 6 18V22C6 23.1 6.9 24 8 24H24C25.1 24 26 23.1 26 22V10C26 8.9 25.19 8 24.19 8ZM21.73 17.3L12.87 19.66L11.21 16.78L12.14 16.53L13.4 17.52L15.79 16.88L13.39 12.72L14.79 12.34L18.8 16.08L21.24 15.43C21.75 15.29 22.28 15.6 22.42 16.11C22.55 16.62 22.25 17.15 21.73 17.3Z" fill="#666CFF"/>
</svg>
