<svg width="106" height="56" viewBox="0 0 106 56" fill="none" xmlns="http://www.w3.org/2000/svg">
<g clip-path="url(#clip0_7577_375380)">
<path d="M105.994 17.3148L67.5256 16.2763L67.7186 25.2085C65.199 24.2395 62.4815 23.9036 59.8028 24.23C55.2735 24.7377 51.4044 26.9214 48.8347 30.3373L47.2457 16.0651L32.2424 17.4737L32.2521 18.2875C22.7918 13.2033 11.756 14.6061 4.96194 22.1433C-1.1583 28.9442 -1.66414 38.7309 3.72631 46.5026C6.70547 50.7386 11.067 53.7956 16.0556 55.1442C18.1762 55.7183 20.3637 56.005 22.5601 55.9967C26.2824 55.9967 30.1766 55.2101 34.0766 53.6542L51.6457 55.5646L51.2731 52.2126C53.8757 54.2064 57.1868 55.3282 60.8609 55.3689C62.6986 55.3944 64.527 55.1034 66.2668 54.5086L65.8169 55.3864L101.554 53.7394L105.183 35.9389L94.8736 36.2547L105.994 17.3148Z" fill="#5F14C5"/>
<path d="M45.95 14.1734C46.5813 14.3846 47.1779 14.5861 47.593 15.0027C48.0138 15.4251 48.2166 16.0296 48.4289 16.669C48.5692 17.125 48.7475 17.5683 48.9618 17.9943C49.6916 19.3661 50.989 20.1741 52.4467 20.1741H52.576C54.0993 20.1257 55.4006 19.2053 56.0513 17.7366C56.2363 17.2942 56.383 16.8365 56.4895 16.3687C56.6459 15.7642 56.8062 15.1403 57.1363 14.8051C57.4664 14.4699 58.1113 14.2955 58.7272 14.1347C59.1892 14.0256 59.6412 13.8778 60.0787 13.6929C61.5614 13.0283 62.4688 11.7107 62.5036 10.1704C62.5383 8.62999 61.7043 7.29306 60.2717 6.55872C59.8477 6.35145 59.4065 6.1816 58.9531 6.05107C58.341 5.85731 57.7078 5.66355 57.3043 5.24891C56.9008 4.83427 56.7251 4.25106 56.5166 3.61359C56.2482 2.71262 55.391 0 52.4718 0C49.5526 0 48.6934 2.71262 48.4174 3.6039C48.2243 4.23943 48.0312 4.84008 47.6258 5.23729C47.2203 5.63449 46.6508 5.81856 46.031 6.01232C45.1468 6.29133 42.4535 7.14193 42.4284 10.0638C42.4033 12.9857 45.0734 13.877 45.95 14.1734Z" fill="#5F14C5"/>
<path d="M88.4828 39.7374L99.8236 20.4372L71.1299 19.6641L71.3017 27.6295L83.5615 28.2204L71.7516 51.2467L98.5803 50.0085L100.75 39.3615L88.4828 39.7374Z" fill="#FFE700"/>
<path d="M72.5009 43.0352C73.5532 39.7026 73.6014 34.4944 70.1648 30.811C67.7225 28.1934 64.0755 27.056 60.1523 27.4939C56.0477 27.955 52.4296 30.1813 50.4816 34.0584C48.8946 37.2244 48.5509 41.6034 50.1572 45.0523C52.4972 50.0532 57.3007 51.4695 60.8532 51.5083C65.5949 51.5587 70.6629 48.8848 72.5009 43.0352ZM61.4961 34.7191C63.5465 34.7831 64.338 36.6722 64.2319 38.9547C64.1102 41.5801 62.8572 44.3799 60.8609 44.2404C58.8646 44.1009 57.7313 42.0587 58.1 38.8888C58.3761 36.5366 59.7102 34.6649 61.498 34.7191H61.4961Z" fill="#FFE700"/>
<path d="M44.0483 19.6641L35.8101 20.4372L36.1904 50.0085L47.5679 51.2467L44.0483 19.6641Z" fill="#FFE700"/>
<path d="M19.6545 37.2255L23.9599 39.1398L23.1104 42.517C21.8265 42.1885 20.5778 41.7342 19.3823 41.1607C18.1409 40.5542 16.5346 39.4169 15.7642 37.4599C15.3874 36.5363 15.2034 35.5449 15.2237 34.5471C15.2439 33.5493 15.468 32.5662 15.882 31.6588C16.2466 30.8508 16.7731 30.1269 17.4289 29.5321C18.0846 28.9374 18.8554 28.4847 19.6931 28.2022C21.6586 27.5008 23.373 27.4949 25.6416 28.0084C27.0996 28.3658 28.5016 28.9233 29.808 29.665L33.2388 22.8486C24.0275 16.195 13.4281 17.7586 7.56077 24.2592C-3.79161 36.8535 10.1788 59.1357 32.8179 50.0155L33.0303 35.7025L21.2956 33.6235L19.6545 37.2255Z" fill="#FFE700"/>
<path d="M52.4296 16.3096C51.75 16.3329 51.8639 13.9845 50.0819 12.1865C48.2999 10.3884 45.9348 10.5318 45.9503 9.79743C45.9657 9.06309 48.3057 9.26266 50.0916 7.48783C51.8775 5.71301 51.7018 3.29297 52.4296 3.29297C53.1575 3.29297 52.9702 5.69751 54.7638 7.49558C56.5574 9.29366 58.9341 9.12897 58.9186 9.80518C58.9032 10.4814 56.3431 10.216 54.5765 12.0063C52.81 13.7966 53.1324 16.2864 52.4296 16.3096Z" fill="#FFE700"/>
</g>
<defs>
<clipPath id="clip0_7577_375380">
<rect width="106" height="56" fill="white"/>
</clipPath>
</defs>
</svg>
