<svg width="80" height="68" viewBox="0 0 80 68" fill="none" xmlns="http://www.w3.org/2000/svg">
<g clip-path="url(#clip0_11807_223949)">
<path d="M74.4984 23.2333C73.3913 22.8825 72.2456 22.5188 71.4571 21.7271C70.6686 20.9354 70.3114 19.8122 69.9638 18.7148C69.5165 17.3342 68.197 13.1375 63.7815 13.1214C62.7274 13.104 61.6903 13.3876 60.7917 13.9389L62.079 11.3836L58.3812 8.74134C41.7492 -3.23066 20.634 -1.92403 8.17607 11.8534C-1.92933 23.0112 -2.73712 39.0704 6.14212 51.8116C13.2481 62.0103 24.5282 67.4235 37.2564 67.4235C43.4516 67.4235 49.9912 66.1361 56.5661 63.5036L59.8488 62.1841L60.1159 44.2872C61.121 45.1466 62.4079 45.605 63.73 45.5746H63.9521C68.4351 45.4297 69.5454 41.1172 69.9091 39.7012C70.1923 38.6038 70.4852 37.4677 71.1675 36.779C71.8497 36.0903 73.0276 35.7717 74.1508 35.4756C75.5733 35.1055 79.9019 33.9727 80.0049 29.4703C80.1078 24.9679 75.8822 23.6742 74.4984 23.2333Z" fill="#5F14C5"/>
<path d="M32.5864 37.1892L39.8275 40.4075L38.3954 46.0652C36.2395 45.5199 34.1419 44.7653 32.1326 43.8124C30.044 42.7922 27.3406 40.9159 26.0469 37.6108C25.4134 36.0634 25.104 34.4025 25.1378 32.7308C25.1716 31.0591 25.5478 29.4121 26.2432 27.8916C26.8543 26.5333 27.7395 25.3159 28.8433 24.3157C29.947 23.3155 31.2454 22.5542 32.6572 22.0793C35.9592 20.9047 38.8427 20.895 42.6564 21.7575C45.1084 22.3552 47.4661 23.2887 49.6626 24.5317L55.4298 13.11C39.9434 1.94257 22.1206 4.56225 12.2662 15.4561C-6.82143 36.5584 16.6688 73.8872 54.7475 58.6068L55.1047 34.6274L35.3445 31.1581L32.5864 37.1892Z" fill="#FFE700"/>
<path d="M63.9295 40.3089C62.787 40.3443 62.964 36.3987 59.9839 33.3993C57.0038 30.3998 53.0067 30.6251 53.0196 29.3957C53.0324 28.1663 56.978 28.501 59.9839 25.5338C62.9898 22.5665 62.7066 18.4922 63.9295 18.4922C65.1525 18.4922 64.8403 22.5215 67.8558 25.5338C70.8714 28.5461 74.8652 28.2693 74.8395 29.3957C74.8137 30.5221 70.5109 30.0844 67.5404 33.0742C64.57 36.064 65.1139 40.2703 63.9295 40.3089Z" fill="#FFE700"/>
</g>
<defs>
<clipPath id="clip0_11807_223949">
<rect width="80" height="66.8533" fill="white" transform="translate(0 0.570312)"/>
</clipPath>
</defs>
</svg>
