<svg width="40" height="41" viewBox="0 0 40 41" fill="none" xmlns="http://www.w3.org/2000/svg">
<path d="M5 41H34C35.1046 41 36 40.1046 36 39V13.5942C36 13.0631 35.7888 12.5539 35.413 12.1787L24.7999 1.58453C24.4249 1.21022 23.9167 1 23.3869 1H5C3.89543 1 3 1.89543 3 3V39C3 40.1046 3.89543 41 5 41Z" fill="#87C976"/>
<g filter="url(#filter0_d_4232_340986)">
<path d="M24 11V1L36 13H26C24.8954 13 24 12.1046 24 11Z" fill="#478337"/>
</g>
<path d="M15.2074 25.1108H13.8778C13.8267 24.8267 13.7315 24.5767 13.5923 24.3608C13.4531 24.1449 13.2827 23.9616 13.081 23.8111C12.8793 23.6605 12.6534 23.5469 12.4034 23.4702C12.1563 23.3935 11.8935 23.3551 11.6151 23.3551C11.1122 23.3551 10.6619 23.4815 10.2642 23.7344C9.86932 23.9872 9.55682 24.358 9.3267 24.8466C9.09943 25.3352 8.9858 25.9318 8.9858 26.6364C8.9858 27.3466 9.09943 27.946 9.3267 28.4347C9.55682 28.9233 9.87074 29.2926 10.2685 29.5426C10.6662 29.7926 11.1136 29.9176 11.6108 29.9176C11.8864 29.9176 12.1477 29.8807 12.3949 29.8068C12.6449 29.7301 12.8707 29.6179 13.0724 29.4702C13.2741 29.3224 13.4446 29.142 13.5838 28.929C13.7259 28.7131 13.8239 28.4659 13.8778 28.1875L15.2074 28.1918C15.1364 28.6207 14.9986 29.0156 14.794 29.3764C14.5923 29.7344 14.3324 30.044 14.0142 30.3054C13.6989 30.5639 13.3381 30.7642 12.9318 30.9062C12.5256 31.0483 12.0824 31.1193 11.6023 31.1193C10.8466 31.1193 10.1733 30.9403 9.58239 30.5824C8.99148 30.2216 8.52557 29.706 8.18466 29.0355C7.84659 28.3651 7.67756 27.5653 7.67756 26.6364C7.67756 25.7045 7.84801 24.9048 8.18892 24.2372C8.52983 23.5668 8.99574 23.0526 9.58665 22.6946C10.1776 22.3338 10.8494 22.1534 11.6023 22.1534C12.0653 22.1534 12.4972 22.2202 12.8977 22.3537C13.3011 22.4844 13.6634 22.6776 13.9844 22.9332C14.3054 23.1861 14.571 23.4957 14.7812 23.8622C14.9915 24.2259 15.1335 24.642 15.2074 25.1108ZM21.543 24.5653C21.4975 24.1619 21.31 23.8494 20.9805 23.6278C20.6509 23.4034 20.2362 23.2912 19.7362 23.2912C19.3782 23.2912 19.0685 23.348 18.8072 23.4616C18.5458 23.5724 18.3427 23.7259 18.1978 23.9219C18.0558 24.1151 17.9847 24.3352 17.9847 24.5824C17.9847 24.7898 18.033 24.9687 18.1296 25.1193C18.229 25.2699 18.3583 25.3963 18.5174 25.4986C18.6793 25.598 18.8526 25.6818 19.0373 25.75C19.2219 25.8153 19.3995 25.8693 19.57 25.9119L20.4222 26.1335C20.7006 26.2017 20.9862 26.294 21.2788 26.4105C21.5714 26.527 21.8427 26.6804 22.0927 26.8707C22.3427 27.0611 22.5444 27.2969 22.6978 27.5781C22.854 27.8594 22.9322 28.196 22.9322 28.5881C22.9322 29.0824 22.8043 29.5213 22.5487 29.9048C22.2958 30.2884 21.9279 30.5909 21.445 30.8125C20.9648 31.0341 20.3839 31.1449 19.7021 31.1449C19.0487 31.1449 18.4833 31.0412 18.006 30.8338C17.5288 30.6264 17.1552 30.3324 16.8853 29.9517C16.6154 29.5682 16.4663 29.1136 16.4379 28.5881H17.7589C17.7844 28.9034 17.8867 29.1662 18.0657 29.3764C18.2475 29.5838 18.479 29.7386 18.7603 29.8409C19.0444 29.9403 19.3555 29.9901 19.6935 29.9901C20.0657 29.9901 20.3967 29.9318 20.6864 29.8153C20.979 29.696 21.2092 29.5312 21.3768 29.321C21.5444 29.108 21.6282 28.8594 21.6282 28.5753C21.6282 28.3168 21.5543 28.1051 21.4066 27.9403C21.2617 27.7756 21.0643 27.6392 20.8143 27.5312C20.5671 27.4233 20.2873 27.3281 19.9748 27.2457L18.9435 26.9645C18.2447 26.7741 17.6907 26.4943 17.2816 26.125C16.8754 25.7557 16.6722 25.267 16.6722 24.6591C16.6722 24.1562 16.8086 23.7173 17.0813 23.3423C17.354 22.9673 17.7234 22.6761 18.1893 22.4688C18.6552 22.2585 19.1808 22.1534 19.766 22.1534C20.3569 22.1534 20.8782 22.2571 21.3299 22.4645C21.7844 22.6719 22.1424 22.9574 22.4038 23.321C22.6651 23.6818 22.8015 24.0966 22.8129 24.5653H21.543ZM25.2685 22.2727L27.6974 29.3807H27.7955L30.2244 22.2727H31.6477L28.5071 31H26.9858L23.8452 22.2727H25.2685Z" fill="white"/>
<rect x="9.5" y="18.5" width="18" height="16.5" stroke="white" stroke-opacity="0.15"/>
<rect x="12.5" y="20.5" width="5" height="5" stroke="white" stroke-opacity="0.15"/>
<rect x="12.5" y="27.5" width="5" height="5" stroke="white" stroke-opacity="0.15"/>
<rect x="19.5" y="20.5" width="5" height="5" stroke="white" stroke-opacity="0.15"/>
<rect x="19.5" y="27.5" width="5" height="5" stroke="white" stroke-opacity="0.15"/>
<defs>
<filter id="filter0_d_4232_340986" x="23" y="0" width="16" height="16" filterUnits="userSpaceOnUse" color-interpolation-filters="sRGB">
<feFlood flood-opacity="0" result="BackgroundImageFix"/>
<feColorMatrix in="SourceAlpha" type="matrix" values="0 0 0 0 0 0 0 0 0 0 0 0 0 0 0 0 0 0 127 0" result="hardAlpha"/>
<feOffset dx="1" dy="1"/>
<feGaussianBlur stdDeviation="1"/>
<feComposite in2="hardAlpha" operator="out"/>
<feColorMatrix type="matrix" values="0 0 0 0 0 0 0 0 0 0 0 0 0 0 0 0 0 0 0.25 0"/>
<feBlend mode="normal" in2="BackgroundImageFix" result="effect1_dropShadow_4232_340986"/>
<feBlend mode="normal" in="SourceGraphic" in2="effect1_dropShadow_4232_340986" result="shape"/>
</filter>
</defs>
</svg>
