<svg width="25" height="26" viewBox="0 0 25 26" fill="none" xmlns="http://www.w3.org/2000/svg">
<path d="M4.31194 25.3973H21.0851C21.9272 25.3973 22.6099 24.7146 22.6099 23.8724V8.62414L14.9857 1H4.31194C3.4698 1 2.78711 1.68269 2.78711 2.52483V23.8724C2.78711 24.7146 3.4698 25.3973 4.31194 25.3973Z" fill="#87C976"/>
<g filter="url(#filter0_d_4302_191445)">
<path d="M14.9858 7.40428V1L22.61 8.62414H16.2057C15.532 8.62414 14.9858 8.07799 14.9858 7.40428Z" fill="#478337"/>
</g>
<rect x="6.90772" y="10.4575" width="10.819" height="10.0566" stroke="white" stroke-opacity="0.15" stroke-width="0.617193"/>
<rect x="8.71338" y="11.6771" width="3.19488" height="3.19488" stroke="white" stroke-opacity="0.15" stroke-width="0.617193"/>
<rect x="8.71338" y="15.9465" width="3.19488" height="3.19488" stroke="white" stroke-opacity="0.15" stroke-width="0.617193"/>
<rect x="12.9268" y="11.6771" width="3.19488" height="3.19488" stroke="white" stroke-opacity="0.15" stroke-width="0.617193"/>
<rect x="12.9268" y="15.9465" width="3.19488" height="3.19488" stroke="white" stroke-opacity="0.15" stroke-width="0.617193"/>
<path d="M9.78889 14.9321H8.94417C8.91168 14.7517 8.85121 14.5928 8.76277 14.4556C8.67432 14.3185 8.56603 14.202 8.43788 14.1064C8.30972 14.0107 8.16623 13.9385 8.00739 13.8898C7.85036 13.8411 7.6834 13.8167 7.50652 13.8167C7.18704 13.8167 6.90095 13.897 6.64826 14.0576C6.39737 14.2183 6.19882 14.4538 6.05262 14.7643C5.90823 15.0747 5.83603 15.4538 5.83603 15.9014C5.83603 16.3527 5.90823 16.7335 6.05262 17.044C6.19882 17.3544 6.39827 17.589 6.65097 17.7479C6.90366 17.9067 7.18794 17.9861 7.50381 17.9861C7.67889 17.9861 7.84495 17.9627 8.00198 17.9157C8.16081 17.867 8.30431 17.7957 8.43246 17.7019C8.56061 17.608 8.66891 17.4934 8.75735 17.358C8.8476 17.2208 8.90987 17.0638 8.94417 16.8869L9.78889 16.8896C9.74376 17.1622 9.65622 17.4131 9.52627 17.6423C9.39811 17.8697 9.23296 18.0665 9.0308 18.2325C8.83045 18.3968 8.60122 18.524 8.34311 18.6143C8.08501 18.7045 7.80343 18.7496 7.49839 18.7496C7.01828 18.7496 6.5905 18.6359 6.21507 18.4085C5.83964 18.1793 5.54362 17.8517 5.32703 17.4257C5.11224 16.9997 5.00484 16.4916 5.00484 15.9014C5.00484 15.3094 5.11314 14.8013 5.32974 14.3771C5.54633 13.9512 5.84235 13.6245 6.21778 13.397C6.59321 13.1678 7.02008 13.0532 7.49839 13.0532C7.7926 13.0532 8.06696 13.0956 8.32146 13.1804C8.57776 13.2635 8.80789 13.3862 9.01185 13.5486C9.21581 13.7093 9.38458 13.906 9.51814 14.1389C9.65171 14.3699 9.74196 14.6343 9.78889 14.9321ZM13.8142 14.5856C13.7853 14.3293 13.6662 14.1307 13.4568 13.99C13.2474 13.8474 12.9839 13.7761 12.6662 13.7761C12.4388 13.7761 12.2421 13.8122 12.076 13.8844C11.9099 13.9548 11.7809 14.0522 11.6888 14.1768C11.5986 14.2995 11.5535 14.4394 11.5535 14.5964C11.5535 14.7282 11.5841 14.8419 11.6455 14.9376C11.7087 15.0332 11.7908 15.1135 11.8919 15.1785C11.9948 15.2417 12.1049 15.2949 12.2222 15.3383C12.3395 15.3798 12.4523 15.4141 12.5606 15.4411L13.1021 15.5819C13.279 15.6253 13.4604 15.6839 13.6463 15.7579C13.8322 15.8319 14.0046 15.9294 14.1634 16.0503C14.3223 16.1713 14.4504 16.3211 14.5479 16.4998C14.6472 16.6784 14.6968 16.8923 14.6968 17.1414C14.6968 17.4555 14.6156 17.7343 14.4531 17.978C14.2925 18.2217 14.0587 18.4139 13.7519 18.5547C13.4469 18.6955 13.0777 18.7659 12.6446 18.7659C12.2294 18.7659 11.8702 18.7 11.567 18.5682C11.2638 18.4365 11.0264 18.2497 10.8549 18.0078C10.6835 17.7641 10.5887 17.4753 10.5707 17.1414H11.41C11.4262 17.3418 11.4912 17.5087 11.6049 17.6423C11.7204 17.7741 11.8675 17.8724 12.0462 17.9374C12.2267 18.0006 12.4244 18.0322 12.6391 18.0322C12.8756 18.0322 13.0859 17.9952 13.27 17.9212C13.4559 17.8454 13.6021 17.7407 13.7086 17.6071C13.8151 17.4717 13.8683 17.3138 13.8683 17.1333C13.8683 16.969 13.8214 16.8346 13.7275 16.7299C13.6355 16.6252 13.51 16.5386 13.3512 16.47C13.1942 16.4014 13.0164 16.3409 12.8178 16.2886L12.1626 16.1099C11.7186 15.989 11.3666 15.8112 11.1067 15.5765C10.8486 15.3419 10.7196 15.0314 10.7196 14.6452C10.7196 14.3257 10.8062 14.0468 10.9795 13.8086C11.1528 13.5703 11.3874 13.3853 11.6834 13.2535C11.9794 13.12 12.3133 13.0532 12.6852 13.0532C13.0606 13.0532 13.3918 13.1191 13.6788 13.2508C13.9676 13.3826 14.195 13.564 14.3611 13.795C14.5271 14.0243 14.6138 14.2878 14.621 14.5856H13.8142ZM16.1811 13.129L17.7244 17.645H17.7867L19.3299 13.129H20.2342L18.2388 18.6738H17.2722L15.2769 13.129H16.1811Z" fill="white"/>
<defs>
<filter id="filter0_d_4302_191445" x="14.2234" y="0.237586" width="10.6737" height="10.6738" filterUnits="userSpaceOnUse" color-interpolation-filters="sRGB">
<feFlood flood-opacity="0" result="BackgroundImageFix"/>
<feColorMatrix in="SourceAlpha" type="matrix" values="0 0 0 0 0 0 0 0 0 0 0 0 0 0 0 0 0 0 127 0" result="hardAlpha"/>
<feOffset dx="0.762414" dy="0.762414"/>
<feGaussianBlur stdDeviation="0.762414"/>
<feComposite in2="hardAlpha" operator="out"/>
<feColorMatrix type="matrix" values="0 0 0 0 0.278431 0 0 0 0 0.513726 0 0 0 0 0.215686 0 0 0 0.25 0"/>
<feBlend mode="normal" in2="BackgroundImageFix" result="effect1_dropShadow_4302_191445"/>
<feBlend mode="normal" in="SourceGraphic" in2="effect1_dropShadow_4302_191445" result="shape"/>
</filter>
</defs>
</svg>
