<svg width="32" height="33" viewBox="0 0 32 33" fill="none" xmlns="http://www.w3.org/2000/svg">
<path d="M5 33H27C28.1046 33 29 32.1046 29 31V11L19 1H5C3.89543 1 3 1.89543 3 3V31C3 32.1046 3.89543 33 5 33Z" fill="#71C7F8"/>
<g filter="url(#filter0_d_4547_194705)">
<path d="M19 9.4V1L29 11H20.6C19.7163 11 19 10.2837 19 9.4Z" fill="#146D9F"/>
</g>
<rect x="8" y="13" width="15" height="1.2" rx="0.6" fill="white" fill-opacity="0.8"/>
<rect x="8" y="16.1992" width="15" height="1.2" rx="0.6" fill="white" fill-opacity="0.8"/>
<rect x="8" y="19.4004" width="15" height="1.2" rx="0.6" fill="white" fill-opacity="0.8"/>
<rect x="8" y="22.5996" width="15" height="1.2" rx="0.6" fill="white" fill-opacity="0.8"/>
<rect x="8" y="25.8008" width="15" height="1.2" rx="0.6" fill="white" fill-opacity="0.8"/>
<defs>
<filter id="filter0_d_4547_194705" x="18" y="0" width="14" height="14" filterUnits="userSpaceOnUse" color-interpolation-filters="sRGB">
<feFlood flood-opacity="0" result="BackgroundImageFix"/>
<feColorMatrix in="SourceAlpha" type="matrix" values="0 0 0 0 0 0 0 0 0 0 0 0 0 0 0 0 0 0 127 0" result="hardAlpha"/>
<feOffset dx="1" dy="1"/>
<feGaussianBlur stdDeviation="1"/>
<feComposite in2="hardAlpha" operator="out"/>
<feColorMatrix type="matrix" values="0 0 0 0 0.0784314 0 0 0 0 0.231373 0 0 0 0 0.623529 0 0 0 0.25 0"/>
<feBlend mode="normal" in2="BackgroundImageFix" result="effect1_dropShadow_4547_194705"/>
<feBlend mode="normal" in="SourceGraphic" in2="effect1_dropShadow_4547_194705" result="shape"/>
</filter>
</defs>
</svg>
