<svg width="25" height="26" viewBox="0 0 25 26" fill="none" xmlns="http://www.w3.org/2000/svg">
<path d="M4.31194 25.3973H21.0851C21.9272 25.3973 22.6099 24.7146 22.6099 23.8724V8.62414L14.9857 1H4.31194C3.4698 1 2.78711 1.68269 2.78711 2.52483V23.8724C2.78711 24.7146 3.4698 25.3973 4.31194 25.3973Z" fill="#7197F8"/>
<g filter="url(#filter0_d_4302_191409)">
<path d="M14.9858 7.40428V1L22.61 8.62414H16.2057C15.532 8.62414 14.9858 8.07799 14.9858 7.40428Z" fill="#143B9F"/>
</g>
<rect x="6.59912" y="10.1489" width="11.4362" height="0.914897" rx="0.457449" fill="white" fill-opacity="0.15"/>
<rect x="6.59912" y="12.588" width="11.4362" height="0.914897" rx="0.457449" fill="white" fill-opacity="0.15"/>
<rect x="6.59912" y="15.0287" width="11.4362" height="0.914897" rx="0.457449" fill="white" fill-opacity="0.15"/>
<rect x="6.59912" y="17.4678" width="11.4362" height="0.914897" rx="0.457449" fill="white" fill-opacity="0.15"/>
<rect x="6.59912" y="19.9084" width="11.4362" height="0.914897" rx="0.457449" fill="white" fill-opacity="0.15"/>
<path d="M6.42016 18.6738H4.62513V13.129H6.47701C7.02031 13.129 7.48689 13.24 7.87676 13.462C8.26663 13.6822 8.56535 13.999 8.77292 14.4123C8.9823 14.8239 9.08698 15.3175 9.08698 15.8933C9.08698 16.4709 8.98139 16.9672 8.77021 17.3824C8.56084 17.7975 8.25761 18.117 7.86051 18.3408C7.46342 18.5628 6.9833 18.6738 6.42016 18.6738ZM5.46172 17.9428H6.37413C6.79649 17.9428 7.14756 17.8634 7.42732 17.7046C7.70709 17.5439 7.91647 17.312 8.05545 17.0088C8.19443 16.7037 8.26392 16.3319 8.26392 15.8933C8.26392 15.4583 8.19443 15.0892 8.05545 14.7859C7.91827 14.4827 7.71341 14.2526 7.44086 14.0956C7.16831 13.9385 6.82988 13.86 6.42557 13.86H5.46172V17.9428ZM14.9438 15.9014C14.9438 16.4934 14.8356 17.0024 14.619 17.4284C14.4024 17.8526 14.1054 18.1793 13.7282 18.4085C13.3528 18.6359 12.9259 18.7496 12.4476 18.7496C11.9675 18.7496 11.5388 18.6359 11.1616 18.4085C10.7861 18.1793 10.4901 17.8517 10.2735 17.4257C10.0569 16.9997 9.94863 16.4916 9.94863 15.9014C9.94863 15.3094 10.0569 14.8013 10.2735 14.3771C10.4901 13.9512 10.7861 13.6245 11.1616 13.397C11.5388 13.1678 11.9675 13.0532 12.4476 13.0532C12.9259 13.0532 13.3528 13.1678 13.7282 13.397C14.1054 13.6245 14.4024 13.9512 14.619 14.3771C14.8356 14.8013 14.9438 15.3094 14.9438 15.9014ZM14.1154 15.9014C14.1154 15.4502 14.0423 15.0702 13.8961 14.7616C13.7517 14.4511 13.5531 14.2165 13.3004 14.0576C13.0495 13.897 12.7653 13.8167 12.4476 13.8167C12.1281 13.8167 11.8429 13.897 11.592 14.0576C11.3412 14.2165 11.1426 14.4511 10.9964 14.7616C10.852 15.0702 10.7798 15.4502 10.7798 15.9014C10.7798 16.3527 10.852 16.7335 10.9964 17.044C11.1426 17.3526 11.3412 17.5872 11.592 17.7479C11.8429 17.9067 12.1281 17.9861 12.4476 17.9861C12.7653 17.9861 13.0495 17.9067 13.3004 17.7479C13.5531 17.5872 13.7517 17.3526 13.8961 17.044C14.0423 16.7335 14.1154 16.3527 14.1154 15.9014ZM20.5922 14.9321H19.7475C19.715 14.7517 19.6546 14.5928 19.5661 14.4556C19.4777 14.3185 19.3694 14.202 19.2412 14.1064C19.1131 14.0107 18.9696 13.9385 18.8107 13.8898C18.6537 13.8411 18.4868 13.8167 18.3099 13.8167C17.9904 13.8167 17.7043 13.897 17.4516 14.0576C17.2007 14.2183 17.0022 14.4538 16.856 14.7643C16.7116 15.0747 16.6394 15.4538 16.6394 15.9014C16.6394 16.3527 16.7116 16.7335 16.856 17.044C17.0022 17.3544 17.2016 17.589 17.4543 17.7479C17.707 17.9067 17.9913 17.9861 18.3072 17.9861C18.4822 17.9861 18.6483 17.9627 18.8053 17.9157C18.9642 17.867 19.1077 17.7957 19.2358 17.7019C19.364 17.608 19.4723 17.4934 19.5607 17.358C19.651 17.2208 19.7132 17.0638 19.7475 16.8869L20.5922 16.8896C20.5471 17.1622 20.4596 17.4131 20.3296 17.6423C20.2015 17.8697 20.0363 18.0665 19.8342 18.2325C19.6338 18.3968 19.4046 18.524 19.1465 18.6143C18.8884 18.7045 18.6068 18.7496 18.3017 18.7496C17.8216 18.7496 17.3939 18.6359 17.0184 18.4085C16.643 18.1793 16.347 17.8517 16.1304 17.4257C15.9156 16.9997 15.8082 16.4916 15.8082 15.9014C15.8082 15.3094 15.9165 14.8013 16.1331 14.3771C16.3497 13.9512 16.6457 13.6245 17.0211 13.397C17.3966 13.1678 17.8234 13.0532 18.3017 13.0532C18.596 13.0532 18.8703 13.0956 19.1248 13.1804C19.3811 13.2635 19.6112 13.3862 19.8152 13.5486C20.0192 13.7093 20.1879 13.906 20.3215 14.1389C20.4551 14.3699 20.5453 14.6343 20.5922 14.9321Z" fill="white"/>
<defs>
<filter id="filter0_d_4302_191409" x="14.2234" y="0.237586" width="10.6737" height="10.6738" filterUnits="userSpaceOnUse" color-interpolation-filters="sRGB">
<feFlood flood-opacity="0" result="BackgroundImageFix"/>
<feColorMatrix in="SourceAlpha" type="matrix" values="0 0 0 0 0 0 0 0 0 0 0 0 0 0 0 0 0 0 127 0" result="hardAlpha"/>
<feOffset dx="0.762414" dy="0.762414"/>
<feGaussianBlur stdDeviation="0.762414"/>
<feComposite in2="hardAlpha" operator="out"/>
<feColorMatrix type="matrix" values="0 0 0 0 0.0784314 0 0 0 0 0.231373 0 0 0 0 0.623529 0 0 0 0.25 0"/>
<feBlend mode="normal" in2="BackgroundImageFix" result="effect1_dropShadow_4302_191409"/>
<feBlend mode="normal" in="SourceGraphic" in2="effect1_dropShadow_4302_191409" result="shape"/>
</filter>
</defs>
</svg>
