<svg width="33" height="33" viewBox="0 0 33 33" fill="none" xmlns="http://www.w3.org/2000/svg">
<path d="M5.5 33H27.5C28.6046 33 29.5 32.1046 29.5 31V11L19.5 1H5.5C4.39543 1 3.5 1.89543 3.5 3V31C3.5 32.1046 4.39543 33 5.5 33Z" fill="#71C7F8"/>
<g filter="url(#filter0_d_5288_53908)">
<path d="M19.5 9.4V1L29.5 11H21.1C20.2163 11 19.5 10.2837 19.5 9.4Z" fill="#146D9F"/>
</g>
<rect x="8.5" y="13" width="15" height="1.2" rx="0.6" fill="white" fill-opacity="0.8"/>
<rect x="8.5" y="16.1992" width="15" height="1.2" rx="0.6" fill="white" fill-opacity="0.8"/>
<rect x="8.5" y="19.4004" width="15" height="1.2" rx="0.6" fill="white" fill-opacity="0.8"/>
<rect x="8.5" y="22.5996" width="15" height="1.2" rx="0.6" fill="white" fill-opacity="0.8"/>
<rect x="8.5" y="25.8008" width="15" height="1.2" rx="0.6" fill="white" fill-opacity="0.8"/>
<defs>
<filter id="filter0_d_5288_53908" x="18.5" y="0" width="14" height="14" filterUnits="userSpaceOnUse" color-interpolation-filters="sRGB">
<feFlood flood-opacity="0" result="BackgroundImageFix"/>
<feColorMatrix in="SourceAlpha" type="matrix" values="0 0 0 0 0 0 0 0 0 0 0 0 0 0 0 0 0 0 127 0" result="hardAlpha"/>
<feOffset dx="1" dy="1"/>
<feGaussianBlur stdDeviation="1"/>
<feComposite in2="hardAlpha" operator="out"/>
<feColorMatrix type="matrix" values="0 0 0 0 0.0784314 0 0 0 0 0.231373 0 0 0 0 0.623529 0 0 0 0.25 0"/>
<feBlend mode="normal" in2="BackgroundImageFix" result="effect1_dropShadow_5288_53908"/>
<feBlend mode="normal" in="SourceGraphic" in2="effect1_dropShadow_5288_53908" result="shape"/>
</filter>
</defs>
</svg>
