<svg width="40" height="41" viewBox="0 0 40 41" fill="none" xmlns="http://www.w3.org/2000/svg">
<path d="M5 41H34C35.1046 41 36 40.1046 36 39V13.5942C36 13.0631 35.7888 12.5539 35.413 12.1787L24.7999 1.58453C24.4249 1.21022 23.9167 1 23.3869 1H5C3.89543 1 3 1.89543 3 3V39C3 40.1046 3.89543 41 5 41Z" fill="#7197F8"/>
<g filter="url(#filter0_d_4232_341027)">
<path d="M24 11V1L36 13H26C24.8954 13 24 12.1046 24 11Z" fill="#143B9F"/>
</g>
<rect x="9" y="17" width="21" height="1.5" rx="0.75" fill="white" fill-opacity="0.15"/>
<rect x="9" y="21" width="21" height="1.5" rx="0.75" fill="white" fill-opacity="0.15"/>
<rect x="9" y="25" width="21" height="1.5" rx="0.75" fill="white" fill-opacity="0.15"/>
<rect x="9" y="29" width="21" height="1.5" rx="0.75" fill="white" fill-opacity="0.15"/>
<rect x="9" y="33" width="21" height="1.5" rx="0.75" fill="white" fill-opacity="0.15"/>
<path d="M9.78409 30H6.95881V21.2727H9.87358C10.7287 21.2727 11.4631 21.4474 12.0767 21.7969C12.6903 22.1435 13.1605 22.642 13.4872 23.2926C13.8168 23.9403 13.9815 24.7173 13.9815 25.6236C13.9815 26.5327 13.8153 27.3139 13.483 27.9673C13.1534 28.6207 12.6761 29.1236 12.0511 29.4759C11.4261 29.8253 10.6705 30 9.78409 30ZM8.27557 28.8494H9.71165C10.3764 28.8494 10.929 28.7244 11.3693 28.4744C11.8097 28.2216 12.1392 27.8565 12.358 27.3793C12.5767 26.8991 12.6861 26.3139 12.6861 25.6236C12.6861 24.9389 12.5767 24.358 12.358 23.8807C12.142 23.4034 11.8196 23.0412 11.3906 22.794C10.9616 22.5469 10.429 22.4233 9.79261 22.4233H8.27557V28.8494ZM23.1999 25.6364C23.1999 26.5682 23.0295 27.3693 22.6886 28.0398C22.3477 28.7074 21.8803 29.2216 21.2866 29.5824C20.6957 29.9403 20.0238 30.1193 19.271 30.1193C18.5153 30.1193 17.8406 29.9403 17.2468 29.5824C16.6559 29.2216 16.19 28.706 15.8491 28.0355C15.5082 27.3651 15.3377 26.5653 15.3377 25.6364C15.3377 24.7045 15.5082 23.9048 15.8491 23.2372C16.19 22.5668 16.6559 22.0526 17.2468 21.6946C17.8406 21.3338 18.5153 21.1534 19.271 21.1534C20.0238 21.1534 20.6957 21.3338 21.2866 21.6946C21.8803 22.0526 22.3477 22.5668 22.6886 23.2372C23.0295 23.9048 23.1999 24.7045 23.1999 25.6364ZM21.896 25.6364C21.896 24.9261 21.7809 24.3281 21.5508 23.8423C21.3235 23.3537 21.011 22.9844 20.6133 22.7344C20.2184 22.4815 19.771 22.3551 19.271 22.3551C18.7681 22.3551 18.3192 22.4815 17.9244 22.7344C17.5295 22.9844 17.217 23.3537 16.9869 23.8423C16.7596 24.3281 16.646 24.9261 16.646 25.6364C16.646 26.3466 16.7596 26.946 16.9869 27.4347C17.217 27.9205 17.5295 28.2898 17.9244 28.5426C18.3192 28.7926 18.7681 28.9176 19.271 28.9176C19.771 28.9176 20.2184 28.7926 20.6133 28.5426C21.011 28.2898 21.3235 27.9205 21.5508 27.4347C21.7809 26.946 21.896 26.3466 21.896 25.6364ZM32.0902 24.1108H30.7607C30.7095 23.8267 30.6143 23.5767 30.4751 23.3608C30.3359 23.1449 30.1655 22.9616 29.9638 22.8111C29.7621 22.6605 29.5362 22.5469 29.2862 22.4702C29.0391 22.3935 28.7763 22.3551 28.4979 22.3551C27.995 22.3551 27.5447 22.4815 27.147 22.7344C26.7521 22.9872 26.4396 23.358 26.2095 23.8466C25.9822 24.3352 25.8686 24.9318 25.8686 25.6364C25.8686 26.3466 25.9822 26.946 26.2095 27.4347C26.4396 27.9233 26.7536 28.2926 27.1513 28.5426C27.549 28.7926 27.9964 28.9176 28.4936 28.9176C28.7692 28.9176 29.0305 28.8807 29.2777 28.8068C29.5277 28.7301 29.7536 28.6179 29.9553 28.4702C30.157 28.3224 30.3274 28.142 30.4666 27.929C30.6087 27.7131 30.7067 27.4659 30.7607 27.1875L32.0902 27.1918C32.0192 27.6207 31.8814 28.0156 31.6768 28.3764C31.4751 28.7344 31.2152 29.044 30.897 29.3054C30.5817 29.5639 30.2209 29.7642 29.8146 29.9062C29.4084 30.0483 28.9652 30.1193 28.4851 30.1193C27.7294 30.1193 27.0561 29.9403 26.4652 29.5824C25.8743 29.2216 25.4084 28.706 25.0675 28.0355C24.7294 27.3651 24.5604 26.5653 24.5604 25.6364C24.5604 24.7045 24.7308 23.9048 25.0717 23.2372C25.4126 22.5668 25.8786 22.0526 26.4695 21.6946C27.0604 21.3338 27.7322 21.1534 28.4851 21.1534C28.9482 21.1534 29.38 21.2202 29.7805 21.3537C30.1839 21.4844 30.5462 21.6776 30.8672 21.9332C31.1882 22.1861 31.4538 22.4957 31.6641 22.8622C31.8743 23.2259 32.0163 23.642 32.0902 24.1108Z" fill="white"/>
<defs>
<filter id="filter0_d_4232_341027" x="23" y="0" width="16" height="16" filterUnits="userSpaceOnUse" color-interpolation-filters="sRGB">
<feFlood flood-opacity="0" result="BackgroundImageFix"/>
<feColorMatrix in="SourceAlpha" type="matrix" values="0 0 0 0 0 0 0 0 0 0 0 0 0 0 0 0 0 0 127 0" result="hardAlpha"/>
<feOffset dx="1" dy="1"/>
<feGaussianBlur stdDeviation="1"/>
<feComposite in2="hardAlpha" operator="out"/>
<feColorMatrix type="matrix" values="0 0 0 0 0 0 0 0 0 0 0 0 0 0 0 0 0 0 0.25 0"/>
<feBlend mode="normal" in2="BackgroundImageFix" result="effect1_dropShadow_4232_341027"/>
<feBlend mode="normal" in="SourceGraphic" in2="effect1_dropShadow_4232_341027" result="shape"/>
</filter>
</defs>
</svg>
