<svg width="32" height="33" viewBox="0 0 32 33" fill="none" xmlns="http://www.w3.org/2000/svg">
<path d="M5 33H27C28.1046 33 29 32.1046 29 31V11L19 1H5C3.89543 1 3 1.89543 3 3V31C3 32.1046 3.89543 33 5 33Z" fill="#87C976"/>
<g filter="url(#filter0_d_4547_194691)">
<path d="M19 9.4V1L29 11H20.6C19.7163 11 19 10.2837 19 9.4Z" fill="#478337"/>
</g>
<rect x="8.40476" y="13.4048" width="14.1905" height="13.1905" stroke="white" stroke-opacity="0.15" stroke-width="0.809524"/>
<rect x="10.7729" y="15.0044" width="4.19048" height="4.19048" stroke="white" stroke-opacity="0.15" stroke-width="0.809524"/>
<rect x="10.7729" y="20.6042" width="4.19048" height="4.19048" stroke="white" stroke-opacity="0.15" stroke-width="0.809524"/>
<rect x="16.2993" y="15.0044" width="4.19048" height="4.19048" stroke="white" stroke-opacity="0.15" stroke-width="0.809524"/>
<rect x="16.2993" y="20.6042" width="4.19048" height="4.19048" stroke="white" stroke-opacity="0.15" stroke-width="0.809524"/>
<path d="M5.3109 25V18.4545H9.4146V19.3047H6.29847V21.299H9.20046V22.146H6.29847V24.1499H9.45295V25H5.3109ZM11.4113 20.0909L12.4948 22.0021L13.5878 20.0909H14.6329L13.102 22.5455L14.6457 25H13.6006L12.4948 23.1655L11.3921 25H10.3438L11.8715 22.5455L10.363 20.0909H11.4113ZM17.4885 25.0991C17.0134 25.0991 16.6043 24.9915 16.2613 24.7763C15.9204 24.5589 15.6583 24.2596 15.4751 23.8782C15.2918 23.4968 15.2002 23.06 15.2002 22.5678C15.2002 22.0692 15.2939 21.6293 15.4814 21.2479C15.6689 20.8643 15.9331 20.565 16.2741 20.3498C16.615 20.1346 17.0166 20.027 17.479 20.027C17.8518 20.027 18.1842 20.0962 18.4761 20.2347C18.768 20.3711 19.0035 20.5629 19.1824 20.81C19.3635 21.0572 19.4711 21.3459 19.5052 21.6761H18.5752C18.5241 21.446 18.4069 21.2479 18.2236 21.0817C18.0425 20.9155 17.7996 20.8324 17.4949 20.8324C17.2286 20.8324 16.9953 20.9027 16.795 21.0433C16.5969 21.1818 16.4424 21.38 16.3316 21.6378C16.2208 21.8935 16.1654 22.196 16.1654 22.5455C16.1654 22.9034 16.2197 23.2124 16.3284 23.4723C16.4371 23.7322 16.5905 23.9336 16.7886 24.0763C16.9889 24.2191 17.2243 24.2905 17.4949 24.2905C17.676 24.2905 17.8401 24.2575 17.9871 24.1914C18.1363 24.1232 18.2609 24.0263 18.3611 23.9006C18.4633 23.7749 18.5347 23.6236 18.5752 23.4467H19.5052C19.4711 23.7642 19.3678 24.0476 19.1952 24.2969C19.0226 24.5462 18.7915 24.7422 18.5017 24.8849C18.214 25.0277 17.8763 25.0991 17.4885 25.0991ZM22.6429 25.0991C22.1593 25.0991 21.7427 24.9957 21.3933 24.7891C21.046 24.5803 20.7775 24.2873 20.5879 23.9102C20.4004 23.5309 20.3066 23.0866 20.3066 22.5774C20.3066 22.0746 20.4004 21.6314 20.5879 21.2479C20.7775 20.8643 21.0417 20.565 21.3805 20.3498C21.7214 20.1346 22.1199 20.027 22.5758 20.027C22.8528 20.027 23.1213 20.0728 23.3812 20.1644C23.6412 20.256 23.8745 20.3999 24.0811 20.5959C24.2878 20.7919 24.4508 21.0465 24.5701 21.3597C24.6895 21.6708 24.7491 22.049 24.7491 22.4943V22.8331H20.8468V22.1172H23.8127C23.8127 21.8658 23.7615 21.6431 23.6593 21.4492C23.557 21.2532 23.4132 21.0987 23.2278 20.9858C23.0446 20.8729 22.8294 20.8164 22.5822 20.8164C22.3137 20.8164 22.0794 20.8825 21.8791 21.0146C21.6809 21.1445 21.5275 21.315 21.4189 21.5259C21.3123 21.7347 21.2591 21.9616 21.2591 22.2067V22.766C21.2591 23.0941 21.3166 23.3732 21.4316 23.6033C21.5488 23.8335 21.7118 24.0092 21.9206 24.1307C22.1294 24.25 22.3734 24.3097 22.6525 24.3097C22.8336 24.3097 22.9988 24.2841 23.1479 24.233C23.2971 24.1797 23.426 24.1009 23.5346 23.9964C23.6433 23.892 23.7264 23.7631 23.7839 23.6097L24.6884 23.7727C24.6159 24.0391 24.486 24.2724 24.2985 24.4727C24.1131 24.6708 23.8798 24.8253 23.5985 24.9361C23.3194 25.0447 23.0009 25.0991 22.6429 25.0991ZM26.765 18.4545V25H25.8094V18.4545H26.765Z" fill="white"/>
<defs>
<filter id="filter0_d_4547_194691" x="18" y="0" width="14" height="14" filterUnits="userSpaceOnUse" color-interpolation-filters="sRGB">
<feFlood flood-opacity="0" result="BackgroundImageFix"/>
<feColorMatrix in="SourceAlpha" type="matrix" values="0 0 0 0 0 0 0 0 0 0 0 0 0 0 0 0 0 0 127 0" result="hardAlpha"/>
<feOffset dx="1" dy="1"/>
<feGaussianBlur stdDeviation="1"/>
<feComposite in2="hardAlpha" operator="out"/>
<feColorMatrix type="matrix" values="0 0 0 0 0.278431 0 0 0 0 0.513726 0 0 0 0 0.215686 0 0 0 0.25 0"/>
<feBlend mode="normal" in2="BackgroundImageFix" result="effect1_dropShadow_4547_194691"/>
<feBlend mode="normal" in="SourceGraphic" in2="effect1_dropShadow_4547_194691" result="shape"/>
</filter>
</defs>
</svg>
