<svg width="32" height="33" viewBox="0 0 32 33" fill="none" xmlns="http://www.w3.org/2000/svg">
<path d="M5 33H27C28.1046 33 29 32.1046 29 31V11L19 1H5C3.89543 1 3 1.89543 3 3V31C3 32.1046 3.89543 33 5 33Z" fill="#F8A80D" fill-opacity="0.74"/>
<g filter="url(#filter0_d_4547_194704)">
<path d="M19 9.4V1L29 11H20.6C19.7163 11 19 10.2837 19 9.4Z" fill="#87650C"/>
</g>
<path fill-rule="evenodd" clip-rule="evenodd" d="M9.6 13.8H21.4C21.8418 13.8 22.2 14.1582 22.2 14.6V25.4C22.2 25.8418 21.8418 26.2 21.4 26.2H9.6C9.15817 26.2 8.8 25.8418 8.8 25.4V14.6C8.8 14.1582 9.15817 13.8 9.6 13.8ZM8 14.6C8 13.7163 8.71634 13 9.6 13H21.4C22.2837 13 23 13.7163 23 14.6V25.4C23 26.2837 22.2837 27 21.4 27H9.6C8.71634 27 8 26.2837 8 25.4V14.6ZM11.797 18.6004C12.669 18.6004 13.3759 17.884 13.3759 17.0004C13.3759 16.1167 12.669 15.4004 11.797 15.4004C10.925 15.4004 10.218 16.1167 10.218 17.0004C10.218 17.884 10.925 18.6004 11.797 18.6004Z" fill="#FEEADB"/>
<path d="M13.5 22.5L9 26H21.5L22.5 25L19 20.5L16 24.5L13.5 22.5Z" fill="#FEEADB" stroke="#FEEADB" stroke-width="0.8" stroke-linecap="round" stroke-linejoin="round"/>
<defs>
<filter id="filter0_d_4547_194704" x="18" y="0" width="14" height="14" filterUnits="userSpaceOnUse" color-interpolation-filters="sRGB">
<feFlood flood-opacity="0" result="BackgroundImageFix"/>
<feColorMatrix in="SourceAlpha" type="matrix" values="0 0 0 0 0 0 0 0 0 0 0 0 0 0 0 0 0 0 127 0" result="hardAlpha"/>
<feOffset dx="1" dy="1"/>
<feGaussianBlur stdDeviation="1"/>
<feComposite in2="hardAlpha" operator="out"/>
<feColorMatrix type="matrix" values="0 0 0 0 0.278431 0 0 0 0 0.513726 0 0 0 0 0.215686 0 0 0 0.25 0"/>
<feBlend mode="normal" in2="BackgroundImageFix" result="effect1_dropShadow_4547_194704"/>
<feBlend mode="normal" in="SourceGraphic" in2="effect1_dropShadow_4547_194704" result="shape"/>
</filter>
</defs>
</svg>
