<svg width="40" height="41" viewBox="0 0 40 41" fill="none" xmlns="http://www.w3.org/2000/svg">
<path d="M6 41H35C36.1046 41 37 40.1046 37 39V13.5942C37 13.0631 36.7888 12.5539 36.413 12.1787L25.7999 1.58453C25.4249 1.21022 24.9167 1 24.3869 1H6C4.89543 1 4 1.89543 4 3V39C4 40.1046 4.89543 41 6 41Z" fill="#F568BD"/>
<g filter="url(#filter0_d_4232_341028)">
<path d="M25 11V1L37 13H27C25.8954 13 25 12.1046 25 11Z" fill="#9F1468"/>
</g>
<rect x="11.5" y="17.5" width="18" height="16.5" rx="1.5" stroke="white" stroke-opacity="0.15"/>
<path d="M11.9043 33.5L28.9995 19" stroke="white" stroke-opacity="0.15"/>
<circle cx="15.8086" cy="22" r="2" fill="white" fill-opacity="0.15"/>
<path d="M13.3509 21.2727H14.6634V27.4602C14.6634 28.0199 14.5526 28.4986 14.331 28.8963C14.1122 29.294 13.804 29.598 13.4062 29.8082C13.0085 30.0156 12.5426 30.1193 12.0085 30.1193C11.517 30.1193 11.0753 30.0298 10.6832 29.8509C10.294 29.6719 9.9858 29.4119 9.75852 29.071C9.53409 28.7273 9.42188 28.3097 9.42188 27.8182H10.7301C10.7301 28.0597 10.7855 28.2685 10.8963 28.4446C11.0099 28.6207 11.1648 28.7585 11.3608 28.858C11.5597 28.9545 11.7869 29.0028 12.0426 29.0028C12.321 29.0028 12.5568 28.9446 12.75 28.8281C12.946 28.7088 13.0952 28.5341 13.1974 28.304C13.2997 28.0739 13.3509 27.7926 13.3509 27.4602V21.2727ZM16.5799 30V21.2727H19.6907C20.3697 21.2727 20.9322 21.3963 21.3782 21.6435C21.8242 21.8906 22.158 22.2287 22.3796 22.6577C22.6012 23.0838 22.712 23.5639 22.712 24.098C22.712 24.6349 22.5998 25.1179 22.3754 25.5469C22.1538 25.973 21.8185 26.3111 21.3697 26.5611C20.9237 26.8082 20.3626 26.9318 19.6864 26.9318H17.5472V25.8153H19.5671C19.9961 25.8153 20.3441 25.7415 20.6112 25.5938C20.8782 25.4432 21.0742 25.2386 21.1992 24.9801C21.3242 24.7216 21.3867 24.4276 21.3867 24.098C21.3867 23.7685 21.3242 23.4759 21.1992 23.2202C21.0742 22.9645 20.8768 22.7642 20.6069 22.6193C20.3398 22.4744 19.9876 22.402 19.5501 22.402H17.8967V30H16.5799ZM30.1619 24.0298C30.0795 23.7713 29.9688 23.5398 29.8295 23.3352C29.6932 23.1278 29.5298 22.9517 29.3395 22.8068C29.1491 22.6591 28.9318 22.5469 28.6875 22.4702C28.446 22.3935 28.1804 22.3551 27.8906 22.3551C27.3991 22.3551 26.956 22.4815 26.5611 22.7344C26.1662 22.9872 25.8537 23.358 25.6236 23.8466C25.3963 24.3324 25.2827 24.9276 25.2827 25.6321C25.2827 26.3395 25.3977 26.9375 25.6278 27.4261C25.858 27.9148 26.1733 28.2855 26.5739 28.5384C26.9744 28.7912 27.4304 28.9176 27.9418 28.9176C28.4162 28.9176 28.8295 28.821 29.1818 28.6278C29.5369 28.4347 29.8111 28.1619 30.0043 27.8097C30.2003 27.4545 30.2983 27.0369 30.2983 26.5568L30.6392 26.6207H28.142V25.5341H31.5724V26.527C31.5724 27.2599 31.4162 27.8963 31.1037 28.4361C30.794 28.973 30.3651 29.3878 29.8168 29.6804C29.2713 29.973 28.6463 30.1193 27.9418 30.1193C27.152 30.1193 26.4588 29.9375 25.8622 29.5739C25.2685 29.2102 24.8054 28.6946 24.473 28.027C24.1406 27.3565 23.9744 26.5611 23.9744 25.6406C23.9744 24.9446 24.071 24.3196 24.2642 23.7656C24.4574 23.2116 24.7287 22.7415 25.0781 22.3551C25.4304 21.9659 25.8438 21.669 26.3182 21.4645C26.7955 21.2571 27.3168 21.1534 27.8821 21.1534C28.3537 21.1534 28.7926 21.223 29.1989 21.3622C29.608 21.5014 29.9716 21.6989 30.2898 21.9545C30.6108 22.2102 30.8764 22.5142 31.0866 22.8665C31.2969 23.2159 31.4389 23.6037 31.5128 24.0298H30.1619Z" fill="white"/>
<defs>
<filter id="filter0_d_4232_341028" x="24" y="0" width="16" height="16" filterUnits="userSpaceOnUse" color-interpolation-filters="sRGB">
<feFlood flood-opacity="0" result="BackgroundImageFix"/>
<feColorMatrix in="SourceAlpha" type="matrix" values="0 0 0 0 0 0 0 0 0 0 0 0 0 0 0 0 0 0 127 0" result="hardAlpha"/>
<feOffset dx="1" dy="1"/>
<feGaussianBlur stdDeviation="1"/>
<feComposite in2="hardAlpha" operator="out"/>
<feColorMatrix type="matrix" values="0 0 0 0 0 0 0 0 0 0 0 0 0 0 0 0 0 0 0.25 0"/>
<feBlend mode="normal" in2="BackgroundImageFix" result="effect1_dropShadow_4232_341028"/>
<feBlend mode="normal" in="SourceGraphic" in2="effect1_dropShadow_4232_341028" result="shape"/>
</filter>
</defs>
</svg>
