<svg width="40" height="41" viewBox="0 0 40 41" fill="none" xmlns="http://www.w3.org/2000/svg">
<path d="M5 41H34C35.1046 41 36 40.1046 36 39V13.5942C36 13.0631 35.7888 12.5539 35.413 12.1787L24.7999 1.58453C24.4249 1.21022 23.9167 1 23.3869 1H5C3.89543 1 3 1.89543 3 3V39C3 40.1046 3.89543 41 5 41Z" fill="#F56874"/>
<g filter="url(#filter0_d_4232_341029)">
<path d="M24 11V1L36 13H26C24.8954 13 24 12.1046 24 11Z" fill="#C22C3F"/>
</g>
<rect x="9" y="16" width="21" height="1.5" rx="0.75" fill="white" fill-opacity="0.15"/>
<rect x="9" y="20" width="21" height="1.5" rx="0.75" fill="white" fill-opacity="0.15"/>
<rect x="9" y="24" width="21" height="1.5" rx="0.75" fill="white" fill-opacity="0.15"/>
<rect x="9" y="28" width="21" height="1.5" rx="0.75" fill="white" fill-opacity="0.15"/>
<rect x="9" y="32" width="21" height="1.5" rx="0.75" fill="white" fill-opacity="0.15"/>
<path d="M8.95881 29V20.2727H12.0696C12.7486 20.2727 13.3111 20.3963 13.7571 20.6435C14.2031 20.8906 14.5369 21.2287 14.7585 21.6577C14.9801 22.0838 15.0909 22.5639 15.0909 23.098C15.0909 23.6349 14.9787 24.1179 14.7543 24.5469C14.5327 24.973 14.1974 25.3111 13.7486 25.5611C13.3026 25.8082 12.7415 25.9318 12.0653 25.9318H9.92614V24.8153H11.946C12.375 24.8153 12.723 24.7415 12.9901 24.5938C13.2571 24.4432 13.4531 24.2386 13.5781 23.9801C13.7031 23.7216 13.7656 23.4276 13.7656 23.098C13.7656 22.7685 13.7031 22.4759 13.5781 22.2202C13.4531 21.9645 13.2557 21.7642 12.9858 21.6193C12.7188 21.4744 12.3665 21.402 11.929 21.402H10.2756V29H8.95881ZM19.4599 29H16.6346V20.2727H19.5494C20.4045 20.2727 21.1388 20.4474 21.7525 20.7969C22.3661 21.1435 22.8363 21.642 23.163 22.2926C23.4925 22.9403 23.6573 23.7173 23.6573 24.6236C23.6573 25.5327 23.4911 26.3139 23.1587 26.9673C22.8292 27.6207 22.3519 28.1236 21.7269 28.4759C21.1019 28.8253 20.3462 29 19.4599 29ZM17.9513 27.8494H19.3874C20.0522 27.8494 20.6048 27.7244 21.0451 27.4744C21.4854 27.2216 21.815 26.8565 22.0337 26.3793C22.2525 25.8991 22.3619 25.3139 22.3619 24.6236C22.3619 23.9389 22.2525 23.358 22.0337 22.8807C21.8178 22.4034 21.4954 22.0412 21.0664 21.794C20.6374 21.5469 20.1048 21.4233 19.4684 21.4233H17.9513V27.8494ZM25.2947 29V20.2727H30.7067V21.4062H26.6115V24.0653H30.3189V25.1946H26.6115V29H25.2947Z" fill="white"/>
<defs>
<filter id="filter0_d_4232_341029" x="23" y="0" width="16" height="16" filterUnits="userSpaceOnUse" color-interpolation-filters="sRGB">
<feFlood flood-opacity="0" result="BackgroundImageFix"/>
<feColorMatrix in="SourceAlpha" type="matrix" values="0 0 0 0 0 0 0 0 0 0 0 0 0 0 0 0 0 0 127 0" result="hardAlpha"/>
<feOffset dx="1" dy="1"/>
<feGaussianBlur stdDeviation="1"/>
<feComposite in2="hardAlpha" operator="out"/>
<feColorMatrix type="matrix" values="0 0 0 0 0 0 0 0 0 0 0 0 0 0 0 0 0 0 0.25 0"/>
<feBlend mode="normal" in2="BackgroundImageFix" result="effect1_dropShadow_4232_341029"/>
<feBlend mode="normal" in="SourceGraphic" in2="effect1_dropShadow_4232_341029" result="shape"/>
</filter>
</defs>
</svg>
