<svg width="25" height="25" viewBox="0 0 25 25" fill="none" xmlns="http://www.w3.org/2000/svg">
<path d="M4.25 25H20.75C21.5784 25 22.25 24.3284 22.25 23.5V8.5L14.75 1H4.25C3.42157 1 2.75 1.67157 2.75 2.5V23.5C2.75 24.3284 3.42157 25 4.25 25Z" fill="#F56874"/>
<g filter="url(#filter0_d_4302_191292)">
<path d="M14.75 7.3V1L22.25 8.5H15.95C15.2873 8.5 14.75 7.96274 14.75 7.3Z" fill="#C22C3F"/>
</g>
<rect x="6.5" y="10" width="11.25" height="0.9" rx="0.45" fill="white" fill-opacity="0.15"/>
<rect x="6.5" y="12.3994" width="11.25" height="0.9" rx="0.45" fill="white" fill-opacity="0.15"/>
<rect x="6.5" y="14.8003" width="11.25" height="0.9" rx="0.45" fill="white" fill-opacity="0.15"/>
<rect x="6.5" y="17.1997" width="11.25" height="0.9" rx="0.45" fill="white" fill-opacity="0.15"/>
<rect x="6.5" y="19.6006" width="11.25" height="0.9" rx="0.45" fill="white" fill-opacity="0.15"/>
<path d="M5.98852 18.5V13.2013H7.87722C8.28946 13.2013 8.63097 13.2763 8.90177 13.4264C9.17257 13.5765 9.37524 13.7817 9.50978 14.0422C9.64432 14.3009 9.71158 14.5924 9.71158 14.9166C9.71158 15.2426 9.64345 15.5359 9.50719 15.7963C9.37265 16.055 9.16912 16.2603 8.8966 16.4121C8.6258 16.5621 8.28514 16.6372 7.87463 16.6372H6.57583V15.9593H7.80219C8.06264 15.9593 8.27393 15.9145 8.43607 15.8248C8.5982 15.7334 8.71722 15.6092 8.79311 15.4522C8.869 15.2953 8.90695 15.1167 8.90695 14.9166C8.90695 14.7166 8.869 14.5389 8.79311 14.3837C8.71722 14.2284 8.59734 14.1068 8.43348 14.0189C8.27135 13.9309 8.05747 13.8869 7.79184 13.8869H6.78798V18.5H5.98852ZM12.3642 18.5H10.6488V13.2013H12.4185C12.9377 13.2013 13.3835 13.3074 13.7561 13.5195C14.1287 13.73 14.4141 14.0327 14.6125 14.4277C14.8126 14.8209 14.9126 15.2927 14.9126 15.8429C14.9126 16.3948 14.8117 16.8692 14.6099 17.2659C14.4098 17.6626 14.1201 17.9679 13.7406 18.1818C13.3611 18.3939 12.9023 18.5 12.3642 18.5ZM11.4483 17.8014H12.3202C12.7238 17.8014 13.0593 17.7255 13.3266 17.5738C13.594 17.4203 13.7941 17.1986 13.9269 16.9088C14.0597 16.6173 14.1261 16.262 14.1261 15.8429C14.1261 15.4272 14.0597 15.0745 13.9269 14.7847C13.7958 14.4949 13.6 14.275 13.3396 14.1249C13.0791 13.9749 12.7557 13.8999 12.3693 13.8999H11.4483V17.8014ZM15.9068 18.5V13.2013H19.1926V13.8895H16.7062V15.504H18.9571V16.1896H16.7062V18.5H15.9068Z" fill="white"/>
<defs>
<filter id="filter0_d_4302_191292" x="13.25" y="0.25" width="10.5" height="10.5" filterUnits="userSpaceOnUse" color-interpolation-filters="sRGB">
<feFlood flood-opacity="0" result="BackgroundImageFix"/>
<feColorMatrix in="SourceAlpha" type="matrix" values="0 0 0 0 0 0 0 0 0 0 0 0 0 0 0 0 0 0 127 0" result="hardAlpha"/>
<feOffset dy="0.75"/>
<feGaussianBlur stdDeviation="0.75"/>
<feComposite in2="hardAlpha" operator="out"/>
<feColorMatrix type="matrix" values="0 0 0 0 0.760784 0 0 0 0 0.172549 0 0 0 0 0.247059 0 0 0 0.25 0"/>
<feBlend mode="normal" in2="BackgroundImageFix" result="effect1_dropShadow_4302_191292"/>
<feBlend mode="normal" in="SourceGraphic" in2="effect1_dropShadow_4302_191292" result="shape"/>
</filter>
</defs>
</svg>
