<svg width="40" height="41" viewBox="0 0 40 41" fill="none" xmlns="http://www.w3.org/2000/svg">
<path d="M6 41H35C36.1046 41 37 40.1046 37 39V13.5942C37 13.0631 36.7888 12.5539 36.413 12.1787L25.7999 1.58453C25.4249 1.21022 24.9167 1 24.3869 1H6C4.89543 1 4 1.89543 4 3V39C4 40.1046 4.89543 41 6 41Z" fill="#F8940D"/>
<g filter="url(#filter0_d_4232_340967)">
<path d="M25 11V1L37 13H27C25.8954 13 25 12.1046 25 11Z" fill="#87530C"/>
</g>
<rect x="10.5" y="17.5" width="18" height="16.5" rx="1.5" stroke="white" stroke-opacity="0.15"/>
<path d="M10.9043 33.5L27.9995 19" stroke="white" stroke-opacity="0.15"/>
<circle cx="14.8086" cy="22" r="2" fill="white" fill-opacity="0.15"/>
<path d="M8.95881 31V22.2727H12.0696C12.7486 22.2727 13.3111 22.3963 13.7571 22.6435C14.2031 22.8906 14.5369 23.2287 14.7585 23.6577C14.9801 24.0838 15.0909 24.5639 15.0909 25.098C15.0909 25.6349 14.9787 26.1179 14.7543 26.5469C14.5327 26.973 14.1974 27.3111 13.7486 27.5611C13.3026 27.8082 12.7415 27.9318 12.0653 27.9318H9.92614V26.8153H11.946C12.375 26.8153 12.723 26.7415 12.9901 26.5938C13.2571 26.4432 13.4531 26.2386 13.5781 25.9801C13.7031 25.7216 13.7656 25.4276 13.7656 25.098C13.7656 24.7685 13.7031 24.4759 13.5781 24.2202C13.4531 23.9645 13.2557 23.7642 12.9858 23.6193C12.7188 23.4744 12.3665 23.402 11.929 23.402H10.2756V31H8.95881ZM23.6786 22.2727V31H22.4684L18.0323 24.5994H17.9513V31H16.6346V22.2727H17.8533L22.2937 28.6818H22.3746V22.2727H23.6786ZM31.5057 25.0298C31.4233 24.7713 31.3125 24.5398 31.1733 24.3352C31.0369 24.1278 30.8736 23.9517 30.6832 23.8068C30.4929 23.6591 30.2756 23.5469 30.0312 23.4702C29.7898 23.3935 29.5241 23.3551 29.2344 23.3551C28.7429 23.3551 28.2997 23.4815 27.9048 23.7344C27.5099 23.9872 27.1974 24.358 26.9673 24.8466C26.7401 25.3324 26.6264 25.9276 26.6264 26.6321C26.6264 27.3395 26.7415 27.9375 26.9716 28.4261C27.2017 28.9148 27.517 29.2855 27.9176 29.5384C28.3182 29.7912 28.7741 29.9176 29.2855 29.9176C29.7599 29.9176 30.1733 29.821 30.5256 29.6278C30.8807 29.4347 31.1548 29.1619 31.348 28.8097C31.544 28.4545 31.642 28.0369 31.642 27.5568L31.983 27.6207H29.4858V26.5341H32.9162V27.527C32.9162 28.2599 32.7599 28.8963 32.4474 29.4361C32.1378 29.973 31.7088 30.3878 31.1605 30.6804C30.6151 30.973 29.9901 31.1193 29.2855 31.1193C28.4957 31.1193 27.8026 30.9375 27.206 30.5739C26.6122 30.2102 26.1491 29.6946 25.8168 29.027C25.4844 28.3565 25.3182 27.5611 25.3182 26.6406C25.3182 25.9446 25.4148 25.3196 25.608 24.7656C25.8011 24.2116 26.0724 23.7415 26.4219 23.3551C26.7741 22.9659 27.1875 22.669 27.6619 22.4645C28.1392 22.2571 28.6605 22.1534 29.2259 22.1534C29.6974 22.1534 30.1364 22.223 30.5426 22.3622C30.9517 22.5014 31.3153 22.6989 31.6335 22.9545C31.9545 23.2102 32.2202 23.5142 32.4304 23.8665C32.6406 24.2159 32.7827 24.6037 32.8565 25.0298H31.5057Z" fill="white"/>
<defs>
<filter id="filter0_d_4232_340967" x="24" y="0" width="16" height="16" filterUnits="userSpaceOnUse" color-interpolation-filters="sRGB">
<feFlood flood-opacity="0" result="BackgroundImageFix"/>
<feColorMatrix in="SourceAlpha" type="matrix" values="0 0 0 0 0 0 0 0 0 0 0 0 0 0 0 0 0 0 127 0" result="hardAlpha"/>
<feOffset dx="1" dy="1"/>
<feGaussianBlur stdDeviation="1"/>
<feComposite in2="hardAlpha" operator="out"/>
<feColorMatrix type="matrix" values="0 0 0 0 0 0 0 0 0 0 0 0 0 0 0 0 0 0 0.25 0"/>
<feBlend mode="normal" in2="BackgroundImageFix" result="effect1_dropShadow_4232_340967"/>
<feBlend mode="normal" in="SourceGraphic" in2="effect1_dropShadow_4232_340967" result="shape"/>
</filter>
</defs>
</svg>
