<svg width="32" height="33" viewBox="0 0 32 33" fill="none" xmlns="http://www.w3.org/2000/svg">
<path d="M5 33H27C28.1046 33 29 32.1046 29 31V11L19 1H5C3.89543 1 3 1.89543 3 3V31C3 32.1046 3.89543 33 5 33Z" fill="#D44925"/>
<g filter="url(#filter0_d_4547_194692)">
<path d="M19 9.4V1L29 11H20.6C19.7163 11 19 10.2837 19 9.4Z" fill="#7F230C"/>
</g>
<rect x="8" y="27.2012" width="15" height="1.2" rx="0.6" fill="white" fill-opacity="0.15"/>
<path d="M16 11C16.9193 11 17.8295 11.1811 18.6788 11.5328C19.5281 11.8846 20.2997 12.4002 20.9497 13.0503C21.5998 13.7003 22.1154 14.4719 22.4672 15.3212C22.8189 16.1705 23 17.0807 23 18L16 18V11Z" fill="white" fill-opacity="0.15"/>
<path d="M22 19C22 20.3845 21.5895 21.7378 20.8203 22.889C20.0511 24.0401 18.9579 24.9373 17.6788 25.4672C16.3997 25.997 14.9922 26.1356 13.6344 25.8655C12.2765 25.5954 11.0292 24.9287 10.0503 23.9497C9.07128 22.9708 8.4046 21.7235 8.1345 20.3656C7.86441 19.0078 8.00303 17.6003 8.53284 16.3212C9.06266 15.0421 9.95986 13.9489 11.111 13.1797C12.2622 12.4105 13.6155 12 15 12V19H22Z" fill="white" fill-opacity="0.15"/>
<path d="M7.14569 25V17.7273H9.73801C10.3038 17.7273 10.7726 17.8303 11.1443 18.0362C11.516 18.2422 11.7941 18.5239 11.9788 18.8814C12.1634 19.2365 12.2558 19.6366 12.2558 20.0817C12.2558 20.5291 12.1623 20.9316 11.9752 21.2891C11.7906 21.6442 11.5112 21.9259 11.1372 22.1342C10.7655 22.3402 10.2979 22.4432 9.73446 22.4432H7.95179V21.5128H9.63503C9.99251 21.5128 10.2825 21.4512 10.5051 21.3281C10.7276 21.2027 10.891 21.0322 10.9951 20.8168C11.0993 20.6013 11.1514 20.3563 11.1514 20.0817C11.1514 19.8071 11.0993 19.5632 10.9951 19.3501C10.891 19.1371 10.7264 18.9702 10.5015 18.8494C10.279 18.7287 9.98541 18.6683 9.62083 18.6683H8.24299V25H7.14569ZM13.5422 25V17.7273H16.1345C16.7003 17.7273 17.1691 17.8303 17.5407 18.0362C17.9124 18.2422 18.1906 18.5239 18.3753 18.8814C18.5599 19.2365 18.6523 19.6366 18.6523 20.0817C18.6523 20.5291 18.5587 20.9316 18.3717 21.2891C18.1871 21.6442 17.9077 21.9259 17.5336 22.1342C17.162 22.3402 16.6944 22.4432 16.1309 22.4432H14.3483V21.5128H16.0315C16.389 21.5128 16.679 21.4512 16.9015 21.3281C17.1241 21.2027 17.2874 21.0322 17.3916 20.8168C17.4958 20.6013 17.5479 20.3563 17.5479 20.0817C17.5479 19.8071 17.4958 19.5632 17.3916 19.3501C17.2874 19.1371 17.1229 18.9702 16.898 18.8494C16.6755 18.7287 16.3819 18.6683 16.0173 18.6683H14.6395V25H13.5422ZM19.58 18.6719V17.7273H25.2085V18.6719H22.9394V25H21.8456V18.6719H19.58Z" fill="white"/>
<defs>
<filter id="filter0_d_4547_194692" x="18" y="0" width="14" height="14" filterUnits="userSpaceOnUse" color-interpolation-filters="sRGB">
<feFlood flood-opacity="0" result="BackgroundImageFix"/>
<feColorMatrix in="SourceAlpha" type="matrix" values="0 0 0 0 0 0 0 0 0 0 0 0 0 0 0 0 0 0 127 0" result="hardAlpha"/>
<feOffset dx="1" dy="1"/>
<feGaussianBlur stdDeviation="1"/>
<feComposite in2="hardAlpha" operator="out"/>
<feColorMatrix type="matrix" values="0 0 0 0 0.0784314 0 0 0 0 0.231373 0 0 0 0 0.623529 0 0 0 0.25 0"/>
<feBlend mode="normal" in2="BackgroundImageFix" result="effect1_dropShadow_4547_194692"/>
<feBlend mode="normal" in="SourceGraphic" in2="effect1_dropShadow_4547_194692" result="shape"/>
</filter>
</defs>
</svg>
