<svg width="32" height="33" viewBox="0 0 32 33" fill="none" xmlns="http://www.w3.org/2000/svg">
<path d="M5 33H27C28.1046 33 29 32.1046 29 31V11L19 1H5C3.89543 1 3 1.89543 3 3V31C3 32.1046 3.89543 33 5 33Z" fill="#AC71F8"/>
<g filter="url(#filter0_d_4547_194703)">
<path d="M19 9.4V1L29 11H20.6C19.7163 11 19 10.2837 19 9.4Z" fill="#38149F"/>
</g>
<path fill-rule="evenodd" clip-rule="evenodd" d="M15.5 28C19.6421 28 23 24.6421 23 20.5C23 16.3579 19.6421 13 15.5 13C11.3579 13 8 16.3579 8 20.5C8 24.6421 11.3579 28 15.5 28ZM19 20.2667L13 17V24L19 20.2667Z" fill="white" fill-opacity="0.8"/>
<defs>
<filter id="filter0_d_4547_194703" x="18" y="0" width="14" height="14" filterUnits="userSpaceOnUse" color-interpolation-filters="sRGB">
<feFlood flood-opacity="0" result="BackgroundImageFix"/>
<feColorMatrix in="SourceAlpha" type="matrix" values="0 0 0 0 0 0 0 0 0 0 0 0 0 0 0 0 0 0 127 0" result="hardAlpha"/>
<feOffset dx="1" dy="1"/>
<feGaussianBlur stdDeviation="1"/>
<feComposite in2="hardAlpha" operator="out"/>
<feColorMatrix type="matrix" values="0 0 0 0 0.278431 0 0 0 0 0.513726 0 0 0 0 0.215686 0 0 0 0.25 0"/>
<feBlend mode="normal" in2="BackgroundImageFix" result="effect1_dropShadow_4547_194703"/>
<feBlend mode="normal" in="SourceGraphic" in2="effect1_dropShadow_4547_194703" result="shape"/>
</filter>
</defs>
</svg>
