<svg width="19" height="18" viewBox="0 0 19 18" fill="none" xmlns="http://www.w3.org/2000/svg">
<path d="M15.491 6.73193H3.51022C3.15742 6.73193 2.81722 6.87564 2.57602 7.12802C2.33482 7.38039 2.21242 7.72039 2.23762 8.06389L2.67142 13.9718C2.69482 14.2855 2.83702 14.5782 3.07462 14.7938C3.31222 15.0094 3.62002 15.1268 3.94402 15.1268H15.0554C15.3794 15.1268 15.689 15.0076 15.9248 14.7938C16.1606 14.58 16.3046 14.2873 16.328 13.9736L16.7618 8.0674C16.787 7.72389 16.6628 7.38389 16.4234 7.13152C16.1822 6.87915 15.842 6.73544 15.4892 6.73544L15.491 6.73193ZM15.2534 13.8965C15.248 13.9578 15.2174 13.9999 15.1904 14.0227C15.1688 14.0419 15.1238 14.0735 15.0572 14.0735H3.94402C3.88102 14.0735 3.83602 14.0454 3.81082 14.0227C3.78562 13.9999 3.75322 13.9578 3.74782 13.8965L3.31402 7.98853C3.30862 7.91668 3.34462 7.8676 3.36622 7.84482C3.38782 7.82204 3.43642 7.78348 3.51022 7.78348H15.491C15.5648 7.78348 15.6134 7.82204 15.635 7.84482C15.6566 7.8676 15.6926 7.91668 15.6872 7.98853L15.2534 13.8965Z" fill="#8D8E9A"/>
<path d="M14.9161 4.62369H8.97966C8.93466 4.62369 8.89146 4.60792 8.85546 4.58163L7.69986 3.67555C7.47306 3.49854 7.18866 3.40039 6.89886 3.40039H4.08186C3.37806 3.40039 2.80566 3.95771 2.80566 4.64297V5.86627C2.80566 6.1572 3.04686 6.39204 3.34566 6.39204C3.64446 6.39204 3.88566 6.1572 3.88566 5.86627V4.64297C3.88566 4.53781 3.97386 4.45194 4.08186 4.45194H6.89886C6.94386 4.45194 6.98706 4.46771 7.02306 4.494L8.17866 5.40008C8.40546 5.57709 8.68986 5.67524 8.97966 5.67524H14.9161C15.0241 5.67524 15.1123 5.76111 15.1123 5.86627C15.1123 6.1572 15.3535 6.39204 15.6523 6.39204C15.9511 6.39204 16.1923 6.1572 16.1923 5.86627C16.1923 5.18101 15.6199 4.62369 14.9161 4.62369Z" fill="#8D8E9A"/>
<path d="M13.0662 11.0402C13.068 11.0314 13.0698 11.0209 13.0716 11.0104C13.0752 10.9893 13.077 10.9665 13.0788 10.9455C13.0788 10.9368 13.0788 10.9262 13.0788 10.9175C13.0788 10.8894 13.0752 10.8631 13.0716 10.8351C13.0716 10.8316 13.0716 10.8298 13.0716 10.8263C13.0662 10.7965 13.0572 10.7685 13.0446 10.7405C13.041 10.7317 13.0374 10.7229 13.0338 10.7142C13.0248 10.6931 13.014 10.6739 13.0014 10.6546C12.996 10.6458 12.9906 10.6388 12.9852 10.6301C12.9672 10.6038 12.9474 10.5792 12.924 10.5564L11.1168 8.79686C10.9062 8.5918 10.5642 8.5918 10.3536 8.79686C10.143 9.00191 10.143 9.3349 10.3536 9.53995L11.2392 10.4022H6.46383C6.16503 10.4022 5.92383 10.6371 5.92383 10.928C5.92383 11.2189 6.16503 11.4538 6.46383 11.4538H11.2392L10.3536 12.316C10.143 12.5211 10.143 12.8541 10.3536 13.0591C10.4598 13.1625 10.5966 13.2133 10.7352 13.2133C10.8738 13.2133 11.0124 13.1625 11.1168 13.0591L12.924 11.2995C12.924 11.2995 12.9294 11.2908 12.933 11.2873C12.951 11.2697 12.9672 11.2505 12.9816 11.2294C12.987 11.2224 12.9924 11.2154 12.9978 11.2084C13.014 11.1839 13.0302 11.1558 13.041 11.1278C13.0428 11.1225 13.0446 11.1173 13.0464 11.112C13.0554 11.0875 13.0626 11.0629 13.068 11.0384L13.0662 11.0402Z" fill="#8D8E9A"/>
</svg>
