<svg width="20" height="20" viewBox="0 0 20 20" fill="none" xmlns="http://www.w3.org/2000/svg">
<g id="20/status">
<path id="Vector" d="M9.99956 1.66699C10.4629 1.66699 10.9162 1.70533 11.3596 1.77699L9.79956 3.33699C8.49904 3.37602 7.23837 3.79475 6.17295 4.54156C5.10752 5.28838 4.28391 6.33063 3.80365 7.53985C3.32339 8.74907 3.20746 10.0724 3.47016 11.3467C3.73286 12.621 4.3627 13.7906 5.28205 14.7113C6.2014 15.632 7.37006 16.2635 8.64398 16.5281C9.9179 16.7926 11.2414 16.6786 12.4513 16.2001C13.6612 15.7216 14.7047 14.8995 15.453 13.8352C16.2014 12.7708 16.622 11.5108 16.6629 10.2103L18.2246 8.65033C18.5009 10.3337 18.254 12.0613 17.5171 13.5998C16.7803 15.1384 15.589 16.4137 14.1042 17.2536C12.6194 18.0935 10.9126 18.4575 9.21437 18.2964C7.5161 18.1353 5.90819 17.4569 4.60778 16.3528C3.30738 15.2487 2.37715 13.7722 1.94272 12.1225C1.50829 10.4729 1.5906 8.72964 2.17853 7.12827C2.76646 5.52689 3.83169 4.14453 5.23034 3.16788C6.62898 2.19123 8.29367 1.66735 9.99956 1.66699ZM17.4012 2.60366C17.105 2.30739 16.7533 2.07238 16.3663 1.91204C15.9792 1.75169 15.5643 1.66917 15.1454 1.66917C14.7264 1.66917 14.3116 1.75169 13.9245 1.91204C13.5375 2.07238 13.1858 2.30739 12.8896 2.60366L8.58289 6.91033C8.4922 7.00125 8.42376 7.11191 8.38289 7.23366L6.74289 12.1003C6.68846 12.262 6.68022 12.4357 6.7191 12.6018C6.75799 12.7679 6.84245 12.9198 6.96299 13.0405C7.08354 13.1613 7.23537 13.2459 7.40142 13.2851C7.56747 13.3242 7.74114 13.3162 7.90289 13.262L12.7696 11.6253C12.8919 11.5847 13.0032 11.5162 13.0946 11.4253L17.4012 7.11699C17.6975 6.82077 17.9325 6.46908 18.0929 6.08203C18.2532 5.69497 18.3357 5.28011 18.3357 4.86116C18.3357 4.4422 18.2532 4.02735 18.0929 3.64029C17.9325 3.25323 17.6975 2.89988 17.4012 2.60366ZM14.0679 3.78366C14.3537 3.49789 14.7413 3.33734 15.1454 3.33734C15.5495 3.33734 15.9371 3.49789 16.2229 3.78366C16.5087 4.06943 16.6692 4.45702 16.6692 4.86116C16.6692 5.2653 16.5087 5.65289 16.2229 5.93866L12.0529 10.1053L8.80456 11.1987L9.89789 7.95199L14.0679 3.78366Z" fill="#8D8E9A"/>
</g>
</svg>
