<svg width="21" height="20" viewBox="0 0 21 20" fill="none" xmlns="http://www.w3.org/2000/svg">
  <g id="20/template">
    <path id="Vector"
          d="M16.75 3.75V6.25H4.25V3.75H16.75ZM16.75 2.5H4.25C3.91848 2.5 3.60054 2.6317 3.36612 2.86612C3.1317 3.10054 3 3.41848 3 3.75V6.25C3 6.58152 3.1317 6.89946 3.36612 7.13388C3.60054 7.3683 3.91848 7.5 4.25 7.5H16.75C17.0815 7.5 17.3995 7.3683 17.6339 7.13388C17.8683 6.89946 18 6.58152 18 6.25V3.75C18 3.41848 17.8683 3.10054 17.6339 2.86612C17.3995 2.6317 17.0815 2.5 16.75 2.5ZM6.75 10V16.25H4.25V10H6.75ZM6.75 8.75H4.25C3.91848 8.75 3.60054 8.8817 3.36612 9.11612C3.1317 9.35054 3 9.66848 3 10V16.25C3 16.5815 3.1317 16.8995 3.36612 17.1339C3.60054 17.3683 3.91848 17.5 4.25 17.5H6.75C7.08152 17.5 7.39946 17.3683 7.63388 17.1339C7.8683 16.8995 8 16.5815 8 16.25V10C8 9.66848 7.8683 9.35054 7.63388 9.11612C7.39946 8.8817 7.08152 8.75 6.75 8.75ZM16.75 10V16.25H10.5V10H16.75ZM16.75 8.75H10.5C10.1685 8.75 9.85054 8.8817 9.61612 9.11612C9.3817 9.35054 9.25 9.66848 9.25 10V16.25C9.25 16.5815 9.3817 16.8995 9.61612 17.1339C9.85054 17.3683 10.1685 17.5 10.5 17.5H16.75C17.0815 17.5 17.3995 17.3683 17.6339 17.1339C17.8683 16.8995 18 16.5815 18 16.25V10C18 9.66848 17.8683 9.35054 17.6339 9.11612C17.3995 8.8817 17.0815 8.75 16.75 8.75Z"
          fill="#8D8E9A"/>
  </g>
</svg>
