<svg width="24" height="25" viewBox="0 0 24 25" fill="none" xmlns="http://www.w3.org/2000/svg">
<circle cx="12" cy="12.5" r="11" stroke="#FDBE42" stroke-width="2"/>
<mask id="path-2-inside-1_21978_29044" fill="white">
<path d="M24 12.5C24 10.2869 23.388 8.11697 22.2317 6.23002C21.0754 4.34307 19.4197 2.81263 17.4479 1.80792C15.476 0.80321 13.2647 0.363357 11.0585 0.536992C8.85225 0.710627 6.73699 1.49099 4.94658 2.7918L6.92154 5.51009C8.21063 4.57351 9.73362 4.01165 11.3221 3.88663C12.9106 3.76162 14.5027 4.07831 15.9225 4.8017C17.3422 5.5251 18.5343 6.62701 19.3668 7.98561C20.1994 9.34422 20.64 10.9066 20.64 12.5H24Z"/>
</mask>
<path d="M24 12.5C24 10.2869 23.388 8.11697 22.2317 6.23002C21.0754 4.34307 19.4197 2.81263 17.4479 1.80792C15.476 0.80321 13.2647 0.363357 11.0585 0.536992C8.85225 0.710627 6.73699 1.49099 4.94658 2.7918L6.92154 5.51009C8.21063 4.57351 9.73362 4.01165 11.3221 3.88663C12.9106 3.76162 14.5027 4.07831 15.9225 4.8017C17.3422 5.5251 18.5343 6.62701 19.3668 7.98561C20.1994 9.34422 20.64 10.9066 20.64 12.5H24Z" stroke="#DF9F23" stroke-width="4" mask="url(#path-2-inside-1_21978_29044)"/>
</svg>
