<svg width="32" height="32" viewBox="0 0 32 32" fill="none" xmlns="http://www.w3.org/2000/svg">
<path d="M14.6666 9.33317H17.3333V11.9998H14.6666V9.33317ZM14.6666 14.6665H17.3333V22.6665H14.6666V14.6665ZM16 2.6665C8.63996 2.6665 2.66663 8.63984 2.66663 15.9998C2.66663 23.3598 8.63996 29.3332 16 29.3332C23.36 29.3332 29.3333 23.3598 29.3333 15.9998C29.3333 8.63984 23.36 2.6665 16 2.6665ZM16 26.6665C10.12 26.6665 5.33329 21.8798 5.33329 15.9998C5.33329 10.1198 10.12 5.33317 16 5.33317C21.88 5.33317 26.6666 10.1198 26.6666 15.9998C26.6666 21.8798 21.88 26.6665 16 26.6665Z" fill="#4C4E64" fill-opacity="0.6"/>
</svg>
