<svg width="64" height="64" viewBox="0 0 64 64" fill="none" xmlns="http://www.w3.org/2000/svg">
<rect width="64" height="64" rx="32" fill="#666CFF"/>
<rect width="64" height="64" rx="32" fill="white" fill-opacity="0.88"/>
<path d="M30.6 40.4H33.4V37.6H30.6V40.4ZM32 18C24.272 18 18 24.272 18 32C18 39.728 24.272 46 32 46C39.728 46 46 39.728 46 32C46 24.272 39.728 18 32 18ZM32 43.2C25.826 43.2 20.8 38.174 20.8 32C20.8 25.826 25.826 20.8 32 20.8C38.174 20.8 43.2 25.826 43.2 32C43.2 38.174 38.174 43.2 32 43.2ZM32 23.6C28.906 23.6 26.4 26.106 26.4 29.2H29.2C29.2 27.66 30.46 26.4 32 26.4C33.54 26.4 34.8 27.66 34.8 29.2C34.8 32 30.6 31.65 30.6 36.2H33.4C33.4 33.05 37.6 32.7 37.6 29.2C37.6 26.106 35.094 23.6 32 23.6Z" fill="#666CFF"/>
</svg>
