<svg width="68" height="68" viewBox="0 0 68 68" fill="none" xmlns="http://www.w3.org/2000/svg">
<rect width="68" height="68" rx="34" fill="#FF4D49"/>
<rect width="68" height="68" rx="34" fill="white" fill-opacity="0.88"/>
<path d="M32.417 38.7503H35.5837V41.917H32.417V38.7503ZM32.417 26.0837H35.5837V35.5837H32.417V26.0837ZM33.9845 18.167C25.2445 18.167 18.167 25.2603 18.167 34.0003C18.167 42.7403 25.2445 49.8337 33.9845 49.8337C42.7403 49.8337 49.8337 42.7403 49.8337 34.0003C49.8337 25.2603 42.7403 18.167 33.9845 18.167ZM34.0003 46.667C27.002 46.667 21.3337 40.9987 21.3337 34.0003C21.3337 27.002 27.002 21.3337 34.0003 21.3337C40.9987 21.3337 46.667 27.002 46.667 34.0003C46.667 40.9987 40.9987 46.667 34.0003 46.667Z" fill="#FF4D49"/>
</svg>
