<svg width="69" height="68" viewBox="0 0 69 68" fill="none" xmlns="http://www.w3.org/2000/svg">
<rect x="0.332031" width="68" height="68" rx="34" fill="#26C6F9"/>
<rect x="0.332031" width="68" height="68" rx="34" fill="white" fill-opacity="0.88"/>
<path d="M32.3203 43.0716H35.487V39.9049H32.3203V43.0716ZM33.9036 17.7383C25.1636 17.7383 18.0703 24.8316 18.0703 33.5716C18.0703 42.3116 25.1636 49.4049 33.9036 49.4049C42.6436 49.4049 49.737 42.3116 49.737 33.5716C49.737 24.8316 42.6436 17.7383 33.9036 17.7383ZM33.9036 46.2383C26.9211 46.2383 21.237 40.5541 21.237 33.5716C21.237 26.5891 26.9211 20.9049 33.9036 20.9049C40.8861 20.9049 46.5703 26.5891 46.5703 33.5716C46.5703 40.5541 40.8861 46.2383 33.9036 46.2383ZM33.9036 24.0716C30.4045 24.0716 27.5703 26.9058 27.5703 30.4049H30.737C30.737 28.6633 32.162 27.2383 33.9036 27.2383C35.6453 27.2383 37.0703 28.6633 37.0703 30.4049C37.0703 33.5716 32.3203 33.1758 32.3203 38.3216H35.487C35.487 34.7591 40.237 34.3633 40.237 30.4049C40.237 26.9058 37.4028 24.0716 33.9036 24.0716Z" fill="#26C6F9"/>
</svg>
